<?xml version="1.0" encoding="utf-8"?>
<svg viewBox="0 0 878 660" fill="none" xmlns="http://www.w3.org/2000/svg">
  <path opacity="0.5" fill-rule="evenodd" clip-rule="evenodd" d="M 869.753 663.356 L 2.947 663.356 C -8.028 515.554 137.69 422.419 216.858 371.818 C 227.143 365.245 236.304 359.389 243.853 354.225 C 276.941 331.588 301.477 282.157 327.572 229.584 C 375.648 132.728 429.015 25.21 550.904 54.946 C 658.067 81.158 819.125 192.688 879.678 359.537 L 879.678 636.653 C 876.674 645.485 873.369 654.387 869.753 663.356 Z" style="fill-opacity: 0.33; fill: rgb(218, 253, 235);"/>
  <path d="M 394.788 440.396 C 250.334 440.396 133.232 453.572 133.232 469.826 C 133.232 486.08 250.334 499.256 394.788 499.256 C 539.241 499.256 656.343 486.08 656.343 469.826 C 656.343 453.572 539.241 440.396 394.788 440.396 Z" fill="#F0F0F5" style=""/>
  <path d="M 550.697 473.441 C 550.697 478.752 546.854 483.178 542.083 483.326 C 537.312 483.326 533.335 479.048 533.202 473.737 L 532.805 442.46 C 532.805 437.149 536.648 432.723 541.42 432.576 C 546.191 432.576 550.167 436.853 550.299 442.165 L 550.697 473.441 Z" fill="#091E1D" style=""/>
  <path d="M 428.634 475.066 C 428.634 480.376 424.791 484.802 420.02 484.951 C 415.249 484.951 411.273 480.672 411.14 475.36 L 410.743 444.084 C 410.743 438.773 414.586 434.347 419.357 434.2 C 424.128 434.2 428.104 438.478 428.237 443.789 L 428.634 475.066 Z" fill="#091E1D" style=""/>
  <path d="M 540.89 451.164 C 541.022 463.262 532.274 473.147 521.407 473.294 L 439.767 474.326 C 428.899 474.475 420.02 464.737 419.887 452.639 L 411.14 245.801 C 411.008 233.705 419.755 223.82 430.622 223.671 L 525.383 222.345 C 536.25 222.196 545.131 231.934 545.263 244.031 L 540.89 451.164 Z" fill="#34CB79" style=""/>
  <path opacity="0.1" d="M 544.733 264.832 L 545.131 244.326 C 544.998 232.229 536.118 222.492 525.25 222.639 L 430.489 223.967 C 419.622 224.114 410.875 233.999 411.008 246.097 L 411.935 266.603 L 544.733 264.832 Z" fill="#161826" style=""/>
  <path d="M 560.902 239.163 C 560.902 242.555 558.516 245.212 555.468 245.359 L 400.669 247.424 C 397.621 247.424 395.236 244.769 395.103 241.375 L 394.838 219.541 C 394.838 216.148 397.223 213.493 400.272 213.344 L 555.07 211.279 C 558.119 211.279 560.504 213.935 560.637 217.327 L 560.902 239.163 Z" fill="#34CB79" style=""/>
  <path d="M 478.731 299.797 L 496.755 287.701 L 492.382 300.24 L 478.731 299.797 Z" fill="white" style=""/>
  <path d="M 471.973 280.767 C 471.973 280.767 473.431 280.767 475.684 284.601 C 477.937 288.438 482.973 298.765 482.973 298.765 L 492.117 294.192 L 494.239 290.208 C 494.239 290.208 490.262 281.356 487.081 280.767 L 471.973 280.767 Z" fill="white" style=""/>
  <path d="M 466.936 283.422 C 466.936 283.422 469.719 280.028 471.972 281.799 C 474.225 283.57 478.201 290.947 478.201 290.947 L 471.707 303.634 L 460.045 296.405 L 466.936 283.422 Z" fill="white" style=""/>
  <path d="M 486.949 315.583 L 487.876 338.893 L 480.057 328.714 L 486.949 315.583 Z" fill="white" style=""/>
  <path d="M 505.239 317.944 C 505.239 317.944 504.576 319.419 500.467 319.862 C 496.359 320.305 485.756 320.305 485.756 320.305 L 484.96 331.516 L 487.081 335.5 C 487.081 335.5 495.96 335.942 497.949 332.992 L 505.239 317.944 Z" fill="white" style=""/>
  <path d="M 505.371 311.747 C 505.371 311.747 506.829 316.026 504.311 317.501 C 501.925 318.83 494.106 319.124 494.106 319.124 L 487.081 306.731 L 498.347 298.618 L 505.371 311.747 Z" fill="white" style=""/>
  <path d="M 471.043 315.289 L 452.488 304.371 L 464.417 302.011 L 471.043 315.289 Z" fill="white" style=""/>
  <path d="M 460.045 331.665 C 460.045 331.665 459.25 330.337 460.973 326.206 C 462.695 322.075 467.997 311.896 467.997 311.896 L 459.78 305.552 L 455.671 305.699 C 455.671 305.699 450.899 314.108 452.093 317.354 L 460.045 331.665 Z" fill="white" style=""/>
  <path d="M 464.683 334.91 C 464.683 334.91 460.575 334.024 460.84 331.074 C 460.973 327.976 464.683 320.452 464.683 320.452 L 477.804 320.009 L 478.334 334.91 L 464.683 334.91 Z" fill="white" style=""/>
  <path d="M 238.98 412.217 C 238.98 412.217 242.824 464.295 245.474 465.18 C 255.281 468.721 328.572 487.753 258.86 454.557 L 260.052 416.643 L 238.98 412.217 Z" fill="#051F38" style=""/>
  <path d="M 242.824 452.492 C 240.836 436.855 238.98 412.217 238.98 412.217 L 260.052 416.643 L 258.992 450.427 C 253.823 452.198 247.86 452.345 242.824 452.492 Z" fill="#041523" style=""/>
  <path d="M 288.547 472.114 C 290.8 477.867 252.366 467.688 245.474 465.18 C 245.209 465.18 245.077 464.737 244.812 463.999 C 253.426 466.655 279.668 472.704 288.547 472.114 Z" fill="white" style=""/>
  <path d="M 355.873 473.441 C 355.873 478.752 352.03 483.178 347.259 483.326 C 342.487 483.326 338.512 479.048 338.379 473.737 L 337.981 442.46 C 337.981 437.149 341.825 432.723 346.596 432.576 C 351.367 432.576 355.343 436.853 355.475 442.165 L 355.873 473.441 Z" fill="#091E1D" style=""/>
  <path d="M 233.811 475.066 C 233.811 480.376 229.967 484.802 225.196 484.951 C 220.425 484.951 216.449 480.672 216.316 475.36 L 215.919 444.084 C 215.919 438.773 219.762 434.347 224.533 434.2 C 229.304 434.2 233.281 438.478 233.414 443.789 L 233.811 475.066 Z" fill="#091E1D" style=""/>
  <path d="M 346.066 451.164 C 346.199 463.262 337.452 473.147 326.584 473.294 L 244.944 474.326 C 234.077 474.475 225.196 464.737 225.064 452.639 L 216.317 245.801 C 216.184 233.705 224.931 223.82 235.799 223.671 L 330.56 222.345 C 341.428 222.196 350.307 231.934 350.44 244.031 L 346.066 451.164 Z" fill="#322153" style=""/>
  <path d="M 349.909 264.832 L 350.307 244.326 C 350.175 232.229 341.295 222.492 330.428 222.639 L 235.667 223.967 C 224.798 224.114 216.051 233.999 216.184 246.097 L 217.112 266.603 L 349.909 264.832 Z" fill="#1C0C3B" style=""/>
  <path d="M 366.079 239.163 C 366.079 242.555 363.694 245.212 360.644 245.359 L 205.847 247.424 C 202.798 247.424 200.413 244.769 200.28 241.375 L 200.015 219.541 C 200.015 216.148 202.401 213.493 205.449 213.344 L 360.247 211.279 C 363.296 211.279 365.682 213.935 365.814 217.327 L 366.079 239.163 Z" fill="#322153" style=""/>
  <path d="M 283.909 299.797 L 301.933 287.701 L 297.559 300.24 L 283.909 299.797 Z" fill="white" style=""/>
  <path d="M 277.15 280.767 C 277.15 280.767 278.607 280.767 280.86 284.601 C 283.113 288.438 288.15 298.765 288.15 298.765 L 297.294 294.192 L 299.415 290.208 C 299.415 290.208 295.439 281.356 292.258 280.767 L 277.15 280.767 Z" fill="white" style=""/>
  <path d="M 272.114 283.422 C 272.114 283.422 274.897 280.028 277.15 281.799 C 279.403 283.57 283.379 290.947 283.379 290.947 L 276.885 303.634 L 265.221 296.405 L 272.114 283.422 Z" fill="white" style=""/>
  <path d="M 292.126 315.583 L 293.053 338.893 L 285.234 328.714 L 292.126 315.583 Z" fill="white" style=""/>
  <path d="M 310.414 317.944 C 310.414 317.944 309.752 319.419 305.643 319.862 C 301.535 320.305 290.933 320.305 290.933 320.305 L 290.137 331.516 L 292.258 335.501 C 292.258 335.501 301.137 335.942 303.125 332.992 L 310.414 317.944 Z" fill="white" style=""/>
  <path d="M 310.547 311.747 C 310.547 311.747 312.005 316.026 309.487 317.501 C 307.101 318.83 299.282 319.124 299.282 319.124 L 292.258 306.731 L 303.523 298.618 L 310.547 311.747 Z" fill="white" style=""/>
  <path d="M 276.353 315.289 L 257.798 304.372 L 269.594 302.011 L 276.353 315.289 Z" fill="white" style=""/>
  <path d="M 265.221 331.665 C 265.221 331.665 264.426 330.337 266.149 326.206 C 267.872 322.075 273.173 311.896 273.173 311.896 L 264.956 305.552 L 260.848 305.699 C 260.848 305.699 256.077 314.108 257.269 317.354 L 265.221 331.665 Z" fill="white" style=""/>
  <path d="M 269.992 334.91 C 269.992 334.91 265.884 334.024 266.149 331.074 C 266.281 327.976 269.992 320.452 269.992 320.452 L 283.114 320.009 L 283.644 334.91 L 269.992 334.91 Z" fill="white" style=""/>
</svg>