<?xml version="1.0" encoding="utf-8"?>
<svg width="182" height="44" viewBox="0 0 182 44" fill="none" xmlns="http://www.w3.org/2000/svg">
  <path d="M14.642 1.84962L10.0671 10.5861C9.77168 11.1501 9.96621 11.8554 10.5046 12.1725L17.6681 16.3922C18.214 16.7137 18.9079 16.516 19.2183 15.9504L27.9745 0.000644684H17.6401C16.3892 0.000644684 15.2386 0.710173 14.642 1.84962Z" fill="#29A361"/>
  <path d="M27.974 0L19.2182 15.95C18.9072 16.5154 18.2137 16.7136 17.6681 16.3923L15.7983 15.2913C16.2542 15.3674 16.7284 15.1503 16.9698 14.7099L25.0468 0H27.974Z" fill="#248F55"/>
  <path d="M37.5549 8.45922L34.3995 1.94901C33.8206 0.754574 32.641 0.000644684 31.3513 0.000644684H22.228L29.2328 12.3166C29.2099 12.3273 29.1868 12.338 29.1638 12.3487C28.7232 12.5542 28.7412 13.2093 29.1923 13.3888L35.241 15.796C35.5213 15.9076 35.8358 15.7625 35.9434 15.4721L38.2751 9.17953C38.4475 8.71406 37.9948 8.26491 37.5549 8.45922Z" fill="#34CB79"/>
  <path d="M38.2751 9.17899L35.9427 15.4715C35.8356 15.7627 35.5206 15.9079 35.2406 15.7958L33.4104 15.0671L35.5922 9.17899C35.7162 8.84506 35.5181 8.51988 35.2339 8.43458C34.9632 8.35326 34.7321 8.16954 34.6056 7.90858L31.7165 1.94875C31.1379 0.754706 29.9587 0 28.6685 0H31.3514C32.6407 0 33.8199 0.754706 34.3994 1.94875L37.5546 8.45945C37.9951 8.26524 38.4471 8.71361 38.2751 9.17899Z" fill="#2FB86E"/>
  <path d="M31.4594 33.5593C31.3744 33.1978 30.9244 33.043 30.6498 33.3275L25.9222 38.2268C25.7336 38.4223 25.7336 38.7391 25.9222 38.9345L30.668 43.8526C30.9408 44.1353 31.3862 43.9844 31.4758 43.6291H38.4548C39.7397 43.6291 40.9156 42.8809 41.4969 41.6934L45.4791 33.5592H31.4594V33.5593Z" fill="#29A361"/>
  <path d="M37.3508 33.5594L39.6137 37.1079C40.1253 37.9101 40.1819 38.9353 39.762 39.7928L38.8313 41.6935C38.2509 42.8806 37.0745 43.6293 35.79 43.6293H38.4547C39.7392 43.6293 40.9155 42.8806 41.497 41.6935L45.4789 33.5595H37.3508V33.5594Z" fill="#248F55"/>
  <path d="M21.9354 42.6939V34.0356C21.9354 33.3849 21.4263 32.8572 20.7983 32.8572H2.06787L6.88812 42.0281C7.48559 43.1649 8.63469 43.8723 9.88372 43.8723H20.7983C21.4262 43.8723 21.9354 43.3448 21.9354 42.6939Z" fill="#29A361"/>
  <path d="M10.0115 32.858L5.85181 40.0573L2.06787 32.858H10.0115Z" fill="#248F55"/>
  <path d="M21.935 34.0358V42.6944C21.935 43.345 21.426 43.8724 20.7983 43.8724H17.8149C18.4427 43.8724 18.9517 43.345 18.9517 42.6944V34.0358C18.9517 33.3852 18.4427 32.8578 17.8149 32.8578H20.7983C21.426 32.8577 21.935 33.3852 21.935 34.0358Z" fill="#248F55"/>
  <path d="M12.7847 25.2066L11.9436 18.6467C11.902 18.3226 11.6148 18.0949 11.3021 18.1379L4.94784 19.0129C4.46934 19.0788 4.29102 19.682 4.61877 20.0176L0.608522 26.0077C-0.126759 27.106 -0.201384 28.54 0.415585 29.7138L4.77955 38.0167L11.8654 25.7507C11.8679 25.7526 11.8703 25.7546 11.8729 25.7566C12.2773 26.0747 12.8515 25.7282 12.7847 25.2066Z" fill="#34CB79"/>
  <path d="M11.8725 25.7566C11.8705 25.7545 11.8677 25.7526 11.8657 25.7506L4.77961 38.0163L3.32227 35.2438L9.08977 25.2586L9.2497 24.9816C9.33717 24.8302 9.50808 24.7648 9.67523 24.7984C9.67608 24.7986 9.67692 24.7987 9.67777 24.7989C10.0334 24.8646 10.3981 24.5576 10.3435 24.1362L9.60464 18.3712L11.3015 18.138C11.6145 18.095 11.9023 18.3232 11.9438 18.6464L12.785 25.2072C12.8518 25.7285 12.2771 26.0748 11.8725 25.7566Z" fill="#2FB86E"/>
  <path d="M47.3959 25.5569L41.9103 17.3197C41.5739 16.8144 40.9193 16.6615 40.4062 16.9684L33.2574 21.2435C32.69 21.5828 32.5159 22.3475 32.8771 22.9139L42.9549 38.7151L47.6306 29.1643C48.1965 28.0083 48.1065 26.6239 47.3959 25.5569Z" fill="#34CB79"/>
  <path d="M47.6305 29.1645L42.9541 38.7148L41.3857 36.2546L44.8568 29.1644C45.4227 28.0084 45.3329 26.6242 44.6221 25.5572L39.3306 17.6123L40.4064 16.9687C40.9193 16.6614 41.5741 16.8145 41.9102 17.32L47.3959 25.5573C48.1066 26.6243 48.1964 28.0085 47.6305 29.1645Z" fill="#2FB86E"/>
  <path d="M 164.414 13.795 C 165.177 13.601 165.911 13.498 166.554 13.49 C 167.23 13.489 167.9 13.611 168.465 13.839 C 169.037 14.085 169.321 14.317 169.693 14.683 C 170.183 14.249 170.358 14.188 170.923 13.902 C 171.517 13.612 172.219 13.448 172.921 13.436 C 173.62 13.436 174.321 13.574 174.905 13.847 C 175.506 14.127 176.064 14.653 176.488 15.301 C 176.894 15.946 177.23 16.835 177.465 17.889 C 177.694 18.939 177.818 20.259 177.831 21.795 L 177.927 33.73 L 174.607 33.758 L 174.513 22.076 C 174.5 20.229 174.344 18.948 174.027 18.142 C 173.893 17.769 173.74 17.574 173.499 17.406 C 173.26 17.24 173.035 17.168 172.654 17.181 C 172.371 17.176 172.134 17.238 171.832 17.391 C 171.518 17.543 171.394 17.635 171.192 17.804 C 171.346 18.377 171.39 18.74 171.469 19.453 C 171.548 20.165 171.593 20.97 171.599 21.848 L 171.695 33.783 L 168.375 33.81 L 168.281 22.129 C 168.268 20.282 168.114 18.999 167.796 18.195 C 167.662 17.822 167.509 17.627 167.268 17.459 C 167.029 17.293 166.804 17.221 166.423 17.234 C 166.01 17.231 165.743 17.299 165.333 17.447 L 165.464 33.836 L 162.144 33.863 L 161.989 14.634 L 162.295 14.503 C 162.942 14.227 163.66 13.986 164.414 13.795 Z M 162.995 15.296 L 163.136 32.855 L 164.456 32.844 L 164.327 16.773 L 164.638 16.645 C 165.267 16.388 165.892 16.245 166.415 16.234 C 166.933 16.239 167.464 16.377 167.84 16.638 C 168.213 16.898 168.533 17.348 168.73 17.837 C 169.076 18.758 169.264 20.216 169.281 22.121 L 169.367 32.802 L 170.687 32.791 L 170.599 21.856 C 170.593 21.002 170.552 20.248 170.475 19.564 C 170.401 18.884 170.296 18.297 170.151 17.766 L 170.073 17.479 L 170.287 17.276 C 170.62 16.959 171.009 16.685 171.39 16.494 C 171.79 16.305 172.245 16.192 172.646 16.181 C 173.164 16.186 173.695 16.324 174.071 16.585 C 174.444 16.845 174.764 17.295 174.961 17.784 C 175.306 18.706 175.496 20.163 175.513 22.068 L 175.599 32.75 L 176.919 32.738 L 176.831 21.803 C 176.82 20.309 176.708 19.093 176.489 18.103 C 176.274 17.117 176.004 16.39 175.646 15.839 C 175.304 15.289 174.946 14.969 174.483 14.753 C 174.003 14.53 173.524 14.426 172.929 14.436 C 172.335 14.436 171.853 14.546 171.371 14.796 C 170.863 15.048 170.416 15.352 169.977 15.744 L 169.58 16.101 L 169.254 15.683 C 168.896 15.223 168.539 14.941 168.083 14.763 C 167.621 14.565 167.146 14.481 166.562 14.49 C 165.984 14.494 165.371 14.581 164.662 14.763 C 163.944 14.944 163.514 15.09 162.995 15.296 Z M 154.68 16.152 C 155.158 16.166 155.672 16.346 156.005 16.667 C 156.324 16.975 156.59 17.478 156.743 18.041 C 157.032 19.099 157.184 20.551 157.199 22.331 L 157.203 22.831 L 151.892 22.876 L 151.91 22.355 C 151.971 20.595 152.183 19.141 152.536 18.06 C 152.728 17.495 153.012 16.993 153.344 16.683 C 153.69 16.36 154.204 16.173 154.68 16.152 Z M 154.027 17.413 C 153.802 17.625 153.636 17.902 153.486 18.374 C 153.153 19.369 153.006 20.412 152.931 21.867 L 156.192 21.839 C 156.158 20.35 156.046 19.285 155.779 18.303 C 155.654 17.846 155.518 17.586 155.311 17.387 C 155.118 17.202 154.983 17.132 154.688 17.152 C 154.392 17.138 154.239 17.215 154.027 17.413 Z M 153.106 27.327 C 153.215 28.055 153.376 28.653 153.611 29.18 C 153.831 29.693 154.081 30.032 154.438 30.292 C 154.766 30.56 155.13 30.661 155.686 30.646 C 156.156 30.648 156.53 30.565 156.918 30.375 C 157.342 30.175 157.617 30.022 157.789 29.893 L 158.432 29.411 L 159.078 32.964 L 158.879 33.145 C 158.607 33.394 158.153 33.676 157.581 33.946 C 156.978 34.223 156.222 34.378 155.42 34.39 C 154.361 34.389 153.382 34.11 152.628 33.599 C 151.901 33.078 151.266 32.315 150.805 31.407 C 150.361 30.504 150.028 29.401 149.831 28.166 C 149.639 26.946 149.536 25.586 149.522 24.127 C 149.498 20.598 149.938 17.927 150.814 16.233 C 151.739 14.528 153.094 13.578 154.659 13.519 C 155.53 13.522 156.368 13.752 157.004 14.196 C 157.637 14.639 158.172 15.356 158.542 16.213 C 159.236 17.877 159.607 20.231 159.634 23.177 C 159.636 23.441 159.638 23.712 159.64 23.988 C 159.642 24.273 159.635 24.57 159.619 24.866 L 159.595 25.336 L 152.922 25.393 C 152.955 26.091 152.994 26.586 153.106 27.327 Z M 151.903 24.911 L 151.888 24.401 L 158.638 24.344 C 158.64 24.227 158.642 24.265 158.64 23.996 C 158.638 23.72 158.636 23.449 158.634 23.185 C 158.613 20.311 158.282 18.149 157.62 16.601 C 157.312 15.853 156.938 15.37 156.432 15.016 C 155.929 14.665 155.397 14.503 154.667 14.519 C 153.39 14.484 152.473 15.166 151.7 16.697 C 150.874 18.239 150.492 20.674 150.522 24.119 C 150.534 25.546 150.631 26.83 150.819 28.01 C 151 29.179 151.287 30.137 151.7 30.961 C 152.099 31.774 152.573 32.35 153.202 32.781 C 153.804 33.22 154.491 33.407 155.412 33.39 C 156.12 33.388 156.666 33.281 157.154 33.042 C 157.678 32.798 157.798 32.72 157.993 32.582 L 157.722 31.092 C 157.605 31.153 157.8 31.063 157.346 31.279 C 156.854 31.505 156.268 31.636 155.694 31.646 C 154.992 31.641 154.323 31.438 153.834 31.089 C 153.38 30.731 152.973 30.195 152.697 29.584 C 152.436 28.985 152.239 28.261 152.118 27.477 C 152.002 26.704 151.93 25.839 151.903 24.911 Z M 144.849 29.811 L 144.628 29.959 C 144.352 30.145 144.03 30.31 143.721 30.422 C 143.402 30.53 143.03 30.595 142.683 30.601 C 141.645 30.568 140.726 29.979 140.15 28.966 C 139.631 27.966 139.346 26.259 139.325 23.961 C 139.307 21.426 139.559 19.518 140.065 18.34 C 140.337 17.734 140.731 17.204 141.183 16.881 C 141.639 16.555 142.257 16.376 142.867 16.361 C 143.085 16.361 143.339 16.379 143.59 16.415 C 143.851 16.455 144.146 16.532 144.422 16.634 L 144.744 16.752 Z M 143.446 17.405 C 143.229 17.373 143.052 17.359 142.874 17.361 C 142.406 17.355 142.091 17.461 141.764 17.694 C 141.433 17.931 141.193 18.236 140.981 18.74 C 140.513 19.781 140.303 21.486 140.325 23.953 C 140.34 26.175 140.565 27.651 141.032 28.494 C 141.442 29.325 141.915 29.65 142.675 29.601 C 142.939 29.603 143.15 29.566 143.389 29.478 C 143.635 29.394 143.699 29.356 143.845 29.273 L 143.75 17.466 C 143.648 17.439 143.652 17.433 143.446 17.405 Z M 146.813 36.498 C 146.546 37.465 146.154 38.305 145.68 38.933 C 145.195 39.556 144.577 40.057 143.921 40.361 C 143.271 40.648 142.528 40.806 141.794 40.818 C 141.183 40.821 140.537 40.732 139.926 40.561 C 139.311 40.384 138.707 40.101 138.183 39.75 L 137.914 39.569 L 138.579 35.854 L 139.224 36.331 C 139.52 36.551 139.863 36.732 140.307 36.91 C 140.73 37.084 141.121 37.158 141.577 37.15 C 142.349 37.168 142.839 36.929 143.246 36.326 C 143.7 35.745 143.895 34.74 143.877 33.157 L 143.876 33.05 C 143.79 33.085 143.964 33.027 143.62 33.146 C 143.253 33.269 142.804 33.34 142.355 33.346 C 140.531 33.324 139.065 32.422 138.179 30.78 C 137.359 29.166 136.923 26.864 136.897 23.982 C 136.885 22.448 136.981 21.039 137.18 19.801 C 137.385 18.552 137.724 17.443 138.175 16.544 C 138.642 15.638 139.289 14.877 140.046 14.388 C 140.808 13.896 141.8 13.637 142.87 13.619 C 143.57 13.615 144.29 13.709 144.965 13.892 C 145.631 14.075 146.259 14.327 146.796 14.626 L 147.049 14.767 L 147.195 32.949 C 147.205 34.325 147.074 35.529 146.813 36.498 Z M 146.195 32.957 L 146.053 15.362 C 145.647 15.157 145.313 15.021 144.702 14.856 C 144.095 14.687 143.51 14.611 142.879 14.619 C 141.934 14.619 141.222 14.818 140.588 15.228 C 139.949 15.641 139.466 16.19 139.067 16.996 C 138.648 17.813 138.357 18.778 138.167 19.961 C 137.973 21.154 137.883 22.478 137.897 23.974 C 137.915 26.768 138.295 28.846 139.068 30.322 C 139.771 31.767 140.789 32.398 142.347 32.346 C 142.723 32.346 143.013 32.303 143.292 32.202 C 143.591 32.1 143.85 31.981 144.112 31.823 L 144.861 31.37 L 144.877 33.149 C 144.885 34.838 144.592 36.144 144.052 36.918 C 143.463 37.673 142.575 38.116 141.586 38.15 C 141.033 38.15 140.451 38.04 139.935 37.838 C 139.442 37.638 139.495 37.647 139.293 37.541 L 139.015 39.096 C 139.384 39.317 139.659 39.45 140.198 39.599 C 140.741 39.756 141.247 39.825 141.786 39.818 C 142.42 39.818 142.961 39.703 143.511 39.449 C 144.056 39.213 144.483 38.864 144.886 38.325 C 145.303 37.792 145.61 37.123 145.849 36.234 C 146.094 35.345 146.207 34.275 146.195 32.957 Z M 127.356 28.139 C 127.352 27.46 127.417 26.852 127.552 26.388 C 127.688 25.921 127.916 25.49 128.173 25.185 C 128.442 24.889 128.809 24.636 129.169 24.496 C 129.516 24.374 129.923 24.302 130.306 24.295 C 130.872 24.295 131.488 24.401 132.068 24.599 L 132.401 24.712 L 132.456 31.466 L 132.097 31.573 C 131.492 31.753 130.892 31.853 130.367 31.861 C 129.475 31.847 128.669 31.497 128.137 30.901 C 127.653 30.282 127.373 29.309 127.356 28.139 Z M 128.907 30.263 C 129.249 30.718 129.667 30.887 130.359 30.861 C 130.804 30.861 131.056 30.813 131.45 30.715 L 131.407 25.438 C 131.034 25.335 130.791 25.287 130.314 25.295 C 130.014 25.294 129.774 25.336 129.511 25.436 C 129.264 25.518 129.102 25.629 128.925 25.843 C 128.738 26.046 128.622 26.291 128.512 26.668 C 128.401 27.048 128.348 27.511 128.356 28.13 C 128.355 29.172 128.52 29.831 128.907 30.263 Z M 127.977 14 C 128.534 13.832 129.172 13.738 129.817 13.73 C 131.19 13.745 132.419 14.357 133.304 15.468 C 134.149 16.599 134.609 18.376 134.634 20.646 L 134.739 33.546 L 134.415 33.67 C 133.752 33.923 133.057 34.13 132.366 34.285 C 131.668 34.44 130.955 34.523 130.281 34.531 C 129.589 34.533 128.892 34.414 128.279 34.19 C 127.655 33.95 127.058 33.536 126.588 33.021 C 126.131 32.5 125.739 31.812 125.464 31.04 C 125.195 30.263 125.047 29.288 125.036 28.195 C 125.03 27.177 125.145 26.242 125.373 25.466 C 125.607 24.691 125.956 23.992 126.377 23.451 C 126.806 22.916 127.359 22.468 127.946 22.18 C 128.537 21.905 129.226 21.749 129.908 21.737 C 130.537 21.734 130.857 21.785 131.378 21.885 L 131.369 20.782 C 131.365 19.438 131.203 18.612 130.838 18.159 C 130.524 17.687 130.145 17.517 129.497 17.547 C 129.118 17.547 128.797 17.594 128.464 17.698 C 128.128 17.797 127.794 17.95 127.406 18.182 L 126.795 18.547 L 126.085 14.867 L 126.394 14.69 C 126.884 14.408 127.431 14.171 127.977 14 Z M 127.204 15.386 L 127.515 16.997 C 127.742 16.892 127.775 16.863 128.175 16.74 C 128.581 16.62 129.042 16.553 129.489 16.547 C 130.352 16.563 131.136 16.935 131.64 17.562 C 132.093 18.208 132.353 19.328 132.369 20.774 L 132.383 22.506 L 132.388 23.159 L 131.757 22.994 C 131.066 22.813 130.473 22.73 129.917 22.737 C 129.34 22.737 128.862 22.843 128.378 23.082 C 127.89 23.308 127.513 23.614 127.162 24.07 C 126.797 24.522 126.535 25.055 126.331 25.752 C 126.121 26.445 126.026 27.233 126.036 28.187 C 126.041 29.21 126.161 30.023 126.408 30.708 C 126.645 31.399 126.939 31.92 127.334 32.355 C 127.717 32.793 128.115 33.07 128.627 33.252 C 129.149 33.452 129.669 33.54 130.273 33.531 C 130.893 33.527 131.5 33.456 132.148 33.309 C 132.804 33.164 133.214 33.04 133.733 32.856 L 133.634 20.654 C 133.625 18.502 133.267 17.025 132.512 16.078 C 131.799 15.109 130.97 14.693 129.825 14.73 C 129.249 14.732 128.754 14.804 128.271 14.956 C 127.776 15.108 127.544 15.212 127.204 15.386 Z M 120.416 33.046 C 119.794 32.134 119.449 30.677 119.429 28.819 L 119.244 5.878 L 122.557 5.076 L 122.562 5.706 L 122.75 28.863 C 122.75 29.654 122.838 30.121 123.055 30.404 C 123.227 30.699 123.517 30.85 124.077 30.963 L 124.514 31.051 L 124.142 34.569 L 123.68 34.55 C 122.252 34.492 121.1 33.955 120.416 33.046 Z M 123.246 33.528 L 123.429 31.807 C 122.918 31.616 122.565 31.415 122.23 30.969 C 121.937 30.509 121.762 29.764 121.75 28.871 L 121.567 6.344 L 120.25 6.664 L 120.429 28.811 C 120.437 30.561 120.69 31.734 121.232 32.469 C 121.714 33.211 122.278 33.444 123.246 33.528 Z M 112.084 33.894 C 111.386 33.349 110.78 32.569 110.339 31.648 C 109.915 30.737 109.598 29.632 109.411 28.398 C 109.226 27.179 109.129 25.832 109.116 24.397 C 109.095 21.228 109.526 18.669 110.387 16.828 C 111.309 14.956 112.818 13.918 114.684 13.858 C 115.25 13.858 115.813 13.955 116.279 14.134 C 116.721 14.312 117.163 14.554 117.551 14.833 L 117.818 15.024 L 116.988 18.741 L 116.362 18.185 C 115.874 17.752 115.416 17.577 114.823 17.599 C 114.42 17.588 114.168 17.693 113.879 17.935 C 113.58 18.185 113.356 18.519 113.156 19.062 C 112.721 20.184 112.523 21.923 112.544 24.369 C 112.553 25.391 112.604 26.321 112.7 27.186 C 112.792 28.036 112.942 28.727 113.162 29.317 C 113.37 29.897 113.61 30.294 113.942 30.601 C 114.227 30.905 114.526 31.012 115.011 30.991 C 115.361 30.993 115.618 30.943 115.883 30.824 C 116.168 30.703 116.413 30.558 116.673 30.356 L 117.295 29.871 L 118.061 33.339 L 117.852 33.531 C 117.53 33.825 117.085 34.112 116.58 34.348 C 116.054 34.587 115.434 34.723 114.825 34.734 C 113.78 34.731 112.815 34.435 112.084 33.894 Z M 114.817 33.734 C 115.323 33.735 115.736 33.645 116.158 33.442 C 116.604 33.238 116.745 33.143 116.958 32.98 L 116.645 31.562 C 116.523 31.628 116.619 31.593 116.278 31.742 C 115.913 31.893 115.462 31.983 115.019 31.991 C 114.355 31.98 113.705 31.733 113.248 31.321 C 112.836 30.915 112.474 30.331 112.224 29.661 C 111.984 29.005 111.806 28.198 111.706 27.294 C 111.608 26.403 111.553 25.423 111.544 24.377 C 111.527 21.869 111.757 19.948 112.222 18.707 C 112.47 18.068 112.826 17.512 113.237 17.168 C 113.658 16.815 114.247 16.618 114.815 16.599 C 115.588 16.609 115.869 16.743 116.354 16.993 L 116.696 15.46 C 116.448 15.303 116.297 15.216 115.91 15.064 C 115.544 14.913 115.17 14.85 114.692 14.858 C 113.108 14.828 112.047 15.58 111.291 17.256 C 110.472 18.965 110.089 21.306 110.116 24.389 C 110.127 25.792 110.22 27.067 110.399 28.248 C 110.572 29.418 110.848 30.386 111.244 31.223 C 111.628 32.051 112.086 32.647 112.692 33.1 C 113.263 33.559 113.92 33.753 114.817 33.734 Z M 103.496 11.319 C 103.15 10.864 102.933 10.211 102.927 9.515 C 102.921 8.819 103.128 8.163 103.466 7.702 C 103.84 7.26 104.388 6.976 104.917 6.943 C 105.446 6.967 105.999 7.242 106.379 7.679 C 106.723 8.133 106.942 8.786 106.948 9.482 C 106.954 10.179 106.745 10.835 106.409 11.294 C 106.036 11.737 105.487 12.021 104.958 12.054 C 104.428 12.03 103.876 11.755 103.496 11.319 Z M 104.949 11.054 C 105.246 11.08 105.406 10.988 105.621 10.678 C 105.871 10.387 105.952 10.043 105.948 9.49 C 105.944 8.937 105.857 8.594 105.602 8.308 C 105.383 8.002 105.222 7.911 104.926 7.943 C 104.629 7.917 104.468 8.01 104.252 8.32 C 104.002 8.609 103.923 8.953 103.927 9.507 C 103.931 10.061 104.016 10.404 104.272 10.688 C 104.492 10.994 104.652 11.086 104.949 11.054 Z M 103.318 14.423 L 106.638 14.395 L 106.797 34.333 L 103.477 34.361 Z M 105.789 33.341 L 105.646 15.403 L 104.326 15.415 L 104.469 33.353 Z M 96.034 34.029 C 95.338 33.485 94.727 32.708 94.292 31.785 C 93.862 30.875 93.548 29.767 93.362 28.533 C 93.178 27.314 93.081 25.968 93.068 24.533 C 93.046 21.364 93.478 18.805 94.339 16.964 C 95.261 15.092 96.768 14.054 98.636 13.994 C 99.201 13.994 99.766 14.086 100.23 14.27 C 100.673 14.447 101.114 14.69 101.502 14.969 L 101.769 15.16 L 100.939 18.876 L 100.313 18.322 C 99.824 17.889 99.366 17.713 98.774 17.735 C 98.371 17.724 98.119 17.829 97.83 18.071 C 97.53 18.321 97.312 18.656 97.106 19.198 C 96.679 20.323 96.474 22.059 96.495 24.505 C 96.504 25.527 96.555 26.456 96.65 27.32 C 96.744 28.172 96.893 28.862 97.112 29.452 C 97.32 30.032 97.561 30.429 97.893 30.737 C 98.179 31.041 98.476 31.148 98.962 31.127 C 99.311 31.129 99.569 31.079 99.834 30.96 C 100.119 30.838 100.365 30.694 100.625 30.492 L 101.248 30.007 L 102.012 33.474 L 101.804 33.666 C 101.482 33.961 101.036 34.248 100.532 34.484 C 100.005 34.724 99.384 34.859 98.776 34.87 C 97.732 34.867 96.765 34.571 96.034 34.029 Z M 98.768 33.87 C 99.274 33.871 99.687 33.782 100.109 33.578 C 100.555 33.374 100.697 33.279 100.909 33.117 L 100.596 31.697 C 100.474 31.764 100.57 31.729 100.229 31.878 C 99.864 32.029 99.412 32.119 98.97 32.127 C 98.304 32.116 97.657 31.869 97.199 31.457 C 96.789 31.051 96.426 30.468 96.174 29.798 C 95.935 29.142 95.758 28.334 95.656 27.432 C 95.559 26.54 95.504 25.559 95.495 24.513 C 95.478 22.005 95.701 20.082 96.172 18.842 C 96.415 18.202 96.777 17.648 97.188 17.304 C 97.609 16.951 98.198 16.754 98.766 16.735 C 99.539 16.745 99.82 16.879 100.305 17.129 L 100.647 15.596 C 100.399 15.44 100.247 15.353 99.86 15.2 C 99.494 15.054 99.121 14.986 98.644 14.994 C 97.058 14.964 95.999 15.716 95.243 17.392 C 94.424 19.101 94.04 21.442 94.068 24.525 C 94.079 25.928 94.172 27.204 94.35 28.384 C 94.524 29.555 94.802 30.521 95.196 31.359 C 95.585 32.184 96.038 32.783 96.643 33.236 C 97.213 33.695 97.872 33.889 98.768 33.87 Z M 86.49 16.73 C 86.969 16.744 87.483 16.925 87.815 17.245 C 88.134 17.553 88.394 18.058 88.553 18.618 C 88.839 19.677 88.994 21.129 89.009 22.909 L 89.013 23.409 L 83.701 23.454 L 83.719 22.933 C 83.78 21.173 83.994 19.718 84.345 18.638 C 84.537 18.073 84.822 17.571 85.154 17.261 C 85.5 16.938 86.014 16.751 86.49 16.73 Z M 85.837 17.992 C 85.611 18.203 85.445 18.48 85.295 18.952 C 84.964 19.948 84.815 20.991 84.741 22.445 L 88.002 22.417 C 87.968 20.928 87.859 19.861 87.589 18.882 C 87.469 18.422 87.327 18.164 87.121 17.965 C 86.928 17.779 86.793 17.71 86.498 17.73 C 86.202 17.716 86.049 17.793 85.837 17.992 Z M 84.916 27.905 C 85.024 28.633 85.187 29.231 85.422 29.758 C 85.64 30.271 85.896 30.602 86.248 30.87 C 86.584 31.125 86.94 31.239 87.497 31.224 C 87.966 31.226 88.341 31.143 88.728 30.953 C 89.152 30.753 89.428 30.6 89.598 30.472 L 90.242 29.986 L 90.889 33.542 L 90.689 33.724 C 90.415 33.973 89.962 34.254 89.392 34.524 C 88.788 34.801 88.033 34.956 87.23 34.967 C 86.172 34.967 85.192 34.688 84.439 34.177 C 83.711 33.656 83.077 32.894 82.615 31.985 C 82.17 31.082 81.838 29.979 81.641 28.744 C 81.449 27.524 81.346 26.165 81.333 24.705 C 81.308 21.176 81.736 18.499 82.623 16.81 C 83.525 15.093 84.905 14.156 86.468 14.097 C 87.339 14.1 88.177 14.33 88.814 14.774 C 89.446 15.216 89.981 15.935 90.352 16.791 C 91.046 18.455 91.417 20.808 91.443 23.754 C 91.446 24.019 91.448 24.291 91.449 24.567 C 91.451 24.852 91.445 25.148 91.428 25.446 L 91.403 25.914 L 84.732 25.971 C 84.764 26.668 84.803 27.165 84.916 27.905 Z M 83.714 25.488 L 83.701 24.979 L 90.447 24.922 C 90.449 24.806 90.451 24.843 90.449 24.574 C 90.448 24.299 90.446 24.028 90.443 23.765 C 90.423 20.891 90.092 18.727 89.43 17.179 C 89.122 16.43 88.748 15.948 88.241 15.594 C 87.738 15.243 87.206 15.081 86.476 15.097 C 85.201 15.062 84.307 15.757 83.509 17.276 C 82.696 18.823 82.302 21.252 82.333 24.697 C 82.344 26.123 82.441 27.408 82.629 28.588 C 82.81 29.757 83.096 30.715 83.51 31.539 C 83.909 32.352 84.383 32.928 85.013 33.359 C 85.614 33.797 86.302 33.985 87.221 33.967 C 87.929 33.966 88.476 33.859 88.966 33.62 C 89.488 33.376 89.608 33.298 89.803 33.16 L 89.532 31.67 C 89.415 31.731 89.609 31.641 89.156 31.857 C 88.664 32.083 88.078 32.214 87.505 32.224 C 86.803 32.219 86.122 32.029 85.644 31.666 C 85.182 31.316 84.782 30.773 84.506 30.16 C 84.247 29.563 84.048 28.839 83.928 28.055 C 83.811 27.281 83.739 26.416 83.714 25.488 Z M 71.221 11.422 L 71.631 11.345 C 72.049 11.266 72.526 11.222 73.014 11.217 C 73.596 11.216 74.177 11.306 74.665 11.489 C 75.166 11.676 75.646 12.022 76.01 12.434 C 76.361 12.856 76.659 13.455 76.852 14.135 C 77.035 14.808 77.135 15.66 77.145 16.625 C 77.153 18.538 76.769 20.011 76.057 20.878 C 75.303 21.708 74.166 22.182 72.832 22.211 L 71.307 22.224 Z M 72.824 21.211 C 73.972 21.22 74.735 20.918 75.301 20.224 C 75.906 19.563 76.167 18.422 76.145 16.633 C 76.139 15.722 76.057 14.998 75.888 14.402 C 75.729 13.809 75.533 13.402 75.251 13.085 C 74.979 12.756 74.698 12.568 74.315 12.425 C 73.919 12.278 73.52 12.21 73.022 12.217 C 72.576 12.22 72.476 12.234 72.227 12.264 L 72.299 21.216 Z M 72.963 8.367 C 73.94 8.362 74.879 8.512 75.682 8.81 C 76.496 9.114 77.246 9.643 77.836 10.303 C 78.414 10.972 78.89 11.865 79.211 12.892 C 79.525 13.916 79.695 15.177 79.708 16.603 C 79.719 18.377 79.46 19.885 78.956 21.021 C 78.436 22.151 77.875 22.828 77.131 23.428 C 77.323 23.863 77.47 24.207 77.81 25.036 C 78.153 25.869 78.505 26.789 78.865 27.789 C 79.227 28.788 79.579 29.822 79.922 30.881 C 80.264 31.943 80.561 32.967 80.804 33.935 L 80.959 34.551 L 77.513 34.581 L 77.41 34.214 C 77.209 33.5 76.958 32.695 76.656 31.789 C 76.353 30.881 76.037 29.984 75.708 29.088 C 75.379 28.193 75.05 27.335 74.721 26.512 C 74.392 25.689 74.218 25.273 74.003 24.777 C 73.824 24.801 73.776 24.81 73.46 24.837 C 73.145 24.865 72.819 24.881 72.504 24.884 L 72.329 24.886 L 72.406 34.624 L 69.034 34.652 L 68.829 9.151 L 69.174 9.037 C 70.463 8.61 71.752 8.381 72.963 8.367 Z M 69.835 9.874 L 70.026 33.644 L 71.398 33.632 L 71.321 23.894 L 72.496 23.884 C 72.791 23.881 73.077 23.867 73.373 23.841 C 73.667 23.816 73.943 23.78 74.22 23.731 L 74.604 23.665 L 74.763 24.02 C 75.021 24.6 75.318 25.311 75.649 26.141 C 75.98 26.97 76.315 27.841 76.646 28.743 C 76.979 29.646 77.299 30.557 77.604 31.473 C 77.91 32.389 78.081 32.941 78.267 33.575 L 79.674 33.563 C 79.47 32.801 79.308 32.236 78.97 31.188 C 78.629 30.136 78.283 29.12 77.925 28.129 C 77.569 27.139 77.223 26.238 76.886 25.416 C 76.548 24.593 76.273 23.948 76.056 23.476 L 75.875 23.083 L 76.233 22.851 C 77.017 22.341 77.592 21.629 78.044 20.609 C 78.512 19.597 78.725 18.299 78.708 16.611 C 78.699 15.247 78.551 14.13 78.255 13.188 C 77.971 12.248 77.596 11.536 77.084 10.963 C 76.586 10.383 76.032 10.008 75.332 9.748 C 74.621 9.483 73.864 9.356 72.971 9.367 C 71.844 9.373 70.924 9.54 69.835 9.874 Z M 54.793 35.056 L 54.585 9.058 L 58.013 9.029 L 58.192 31.25 L 64.099 31.2 L 64.128 34.978 Z M 63.107 32.208 L 57.2 32.258 L 57.021 10.037 L 55.593 10.05 L 55.785 34.048 L 63.12 33.986 Z" style=""/>
  <path d="M 164.414 13.795 C 165.177 13.601 165.911 13.498 166.554 13.49 C 167.23 13.489 167.9 13.611 168.465 13.839 C 169.037 14.085 169.321 14.317 169.693 14.683 C 170.183 14.249 170.358 14.188 170.923 13.902 C 171.517 13.612 172.219 13.448 172.921 13.436 C 173.62 13.436 174.321 13.574 174.905 13.847 C 175.506 14.127 176.064 14.653 176.488 15.301 C 176.894 15.946 177.23 16.835 177.465 17.889 C 177.694 18.939 177.818 20.259 177.831 21.795 L 177.927 33.73 L 174.607 33.758 L 174.513 22.076 C 174.5 20.229 174.344 18.948 174.027 18.142 C 173.893 17.769 173.74 17.574 173.499 17.406 C 173.26 17.24 173.035 17.168 172.654 17.181 C 172.371 17.176 172.134 17.238 171.832 17.391 C 171.518 17.543 171.394 17.635 171.192 17.804 C 171.346 18.377 171.39 18.74 171.469 19.453 C 171.548 20.165 171.593 20.97 171.599 21.848 L 171.695 33.783 L 168.375 33.81 L 168.281 22.129 C 168.268 20.282 168.114 18.999 167.796 18.195 C 167.662 17.822 167.509 17.627 167.268 17.459 C 167.029 17.293 166.804 17.221 166.423 17.234 C 166.01 17.231 165.743 17.299 165.333 17.447 L 165.464 33.836 L 162.144 33.863 L 161.989 14.634 L 162.295 14.503 C 162.942 14.227 163.66 13.986 164.414 13.795 Z M 162.995 15.296 L 163.136 32.855 L 164.456 32.844 L 164.327 16.773 L 164.638 16.645 C 165.267 16.388 165.892 16.245 166.415 16.234 C 166.933 16.239 167.464 16.377 167.84 16.638 C 168.213 16.898 168.533 17.348 168.73 17.837 C 169.076 18.758 169.264 20.216 169.281 22.121 L 169.367 32.802 L 170.687 32.791 L 170.599 21.856 C 170.593 21.002 170.552 20.248 170.475 19.564 C 170.401 18.884 170.296 18.297 170.151 17.766 L 170.073 17.479 L 170.287 17.276 C 170.62 16.959 171.009 16.685 171.39 16.494 C 171.79 16.305 172.245 16.192 172.646 16.181 C 173.164 16.186 173.695 16.324 174.071 16.585 C 174.444 16.845 174.764 17.295 174.961 17.784 C 175.306 18.706 175.496 20.163 175.513 22.068 L 175.599 32.75 L 176.919 32.738 L 176.831 21.803 C 176.82 20.309 176.708 19.093 176.489 18.103 C 176.274 17.117 176.004 16.39 175.646 15.839 C 175.304 15.289 174.946 14.969 174.483 14.753 C 174.003 14.53 173.524 14.426 172.929 14.436 C 172.335 14.436 171.853 14.546 171.371 14.796 C 170.863 15.048 170.416 15.352 169.977 15.744 L 169.58 16.101 L 169.254 15.683 C 168.896 15.223 168.539 14.941 168.083 14.763 C 167.621 14.565 167.146 14.481 166.562 14.49 C 165.984 14.494 165.371 14.581 164.662 14.763 C 163.944 14.944 163.514 15.09 162.995 15.296 Z M 154.68 16.152 C 155.158 16.166 155.672 16.346 156.005 16.667 C 156.324 16.975 156.59 17.478 156.743 18.041 C 157.032 19.099 157.184 20.551 157.199 22.331 L 157.203 22.831 L 151.892 22.876 L 151.91 22.355 C 151.971 20.595 152.183 19.141 152.536 18.06 C 152.728 17.495 153.012 16.993 153.344 16.683 C 153.69 16.36 154.204 16.173 154.68 16.152 Z M 154.027 17.413 C 153.802 17.625 153.636 17.902 153.486 18.374 C 153.153 19.369 153.006 20.412 152.931 21.867 L 156.192 21.839 C 156.158 20.35 156.046 19.285 155.779 18.303 C 155.654 17.846 155.518 17.586 155.311 17.387 C 155.118 17.202 154.983 17.132 154.688 17.152 C 154.392 17.138 154.239 17.215 154.027 17.413 Z M 153.106 27.327 C 153.215 28.055 153.376 28.653 153.611 29.18 C 153.831 29.693 154.081 30.032 154.438 30.292 C 154.766 30.56 155.13 30.661 155.686 30.646 C 156.156 30.648 156.53 30.565 156.918 30.375 C 157.342 30.175 157.617 30.022 157.789 29.893 L 158.432 29.411 L 159.078 32.964 L 158.879 33.145 C 158.607 33.394 158.153 33.676 157.581 33.946 C 156.978 34.223 156.222 34.378 155.42 34.39 C 154.361 34.389 153.382 34.11 152.628 33.599 C 151.901 33.078 151.266 32.315 150.805 31.407 C 150.361 30.504 150.028 29.401 149.831 28.166 C 149.639 26.946 149.536 25.586 149.522 24.127 C 149.498 20.598 149.938 17.927 150.814 16.233 C 151.739 14.528 153.094 13.578 154.659 13.519 C 155.53 13.522 156.368 13.752 157.004 14.196 C 157.637 14.639 158.172 15.356 158.542 16.213 C 159.236 17.877 159.607 20.231 159.634 23.177 C 159.636 23.441 159.638 23.712 159.64 23.988 C 159.642 24.273 159.635 24.57 159.619 24.866 L 159.595 25.336 L 152.922 25.393 C 152.955 26.091 152.994 26.586 153.106 27.327 Z M 151.903 24.911 L 151.888 24.401 L 158.638 24.344 C 158.64 24.227 158.642 24.265 158.64 23.996 C 158.638 23.72 158.636 23.449 158.634 23.185 C 158.613 20.311 158.282 18.149 157.62 16.601 C 157.312 15.853 156.938 15.37 156.432 15.016 C 155.929 14.665 155.397 14.503 154.667 14.519 C 153.39 14.484 152.473 15.166 151.7 16.697 C 150.874 18.239 150.492 20.674 150.522 24.119 C 150.534 25.546 150.631 26.83 150.819 28.01 C 151 29.179 151.287 30.137 151.7 30.961 C 152.099 31.774 152.573 32.35 153.202 32.781 C 153.804 33.22 154.491 33.407 155.412 33.39 C 156.12 33.388 156.666 33.281 157.154 33.042 C 157.678 32.798 157.798 32.72 157.993 32.582 L 157.722 31.092 C 157.605 31.153 157.8 31.063 157.346 31.279 C 156.854 31.505 156.268 31.636 155.694 31.646 C 154.992 31.641 154.323 31.438 153.834 31.089 C 153.38 30.731 152.973 30.195 152.697 29.584 C 152.436 28.985 152.239 28.261 152.118 27.477 C 152.002 26.704 151.93 25.839 151.903 24.911 Z M 144.849 29.811 L 144.628 29.959 C 144.352 30.145 144.03 30.31 143.721 30.422 C 143.402 30.53 143.03 30.595 142.683 30.601 C 141.645 30.568 140.726 29.979 140.15 28.966 C 139.631 27.966 139.346 26.259 139.325 23.961 C 139.307 21.426 139.559 19.518 140.065 18.34 C 140.337 17.734 140.731 17.204 141.183 16.881 C 141.639 16.555 142.257 16.376 142.867 16.361 C 143.085 16.361 143.339 16.379 143.59 16.415 C 143.851 16.455 144.146 16.532 144.422 16.634 L 144.744 16.752 Z M 143.446 17.405 C 143.229 17.373 143.052 17.359 142.874 17.361 C 142.406 17.355 142.091 17.461 141.764 17.694 C 141.433 17.931 141.193 18.236 140.981 18.74 C 140.513 19.781 140.303 21.486 140.325 23.953 C 140.34 26.175 140.565 27.651 141.032 28.494 C 141.442 29.325 141.915 29.65 142.675 29.601 C 142.939 29.603 143.15 29.566 143.389 29.478 C 143.635 29.394 143.699 29.356 143.845 29.273 L 143.75 17.466 C 143.648 17.439 143.652 17.433 143.446 17.405 Z M 146.813 36.498 C 146.546 37.465 146.154 38.305 145.68 38.933 C 145.195 39.556 144.577 40.057 143.921 40.361 C 143.271 40.648 142.528 40.806 141.794 40.818 C 141.183 40.821 140.537 40.732 139.926 40.561 C 139.311 40.384 138.707 40.101 138.183 39.75 L 137.914 39.569 L 138.579 35.854 L 139.224 36.331 C 139.52 36.551 139.863 36.732 140.307 36.91 C 140.73 37.084 141.121 37.158 141.577 37.15 C 142.349 37.168 142.839 36.929 143.246 36.326 C 143.7 35.745 143.895 34.74 143.877 33.157 L 143.876 33.05 C 143.79 33.085 143.964 33.027 143.62 33.146 C 143.253 33.269 142.804 33.34 142.355 33.346 C 140.531 33.324 139.065 32.422 138.179 30.78 C 137.359 29.166 136.923 26.864 136.897 23.982 C 136.885 22.448 136.981 21.039 137.18 19.801 C 137.385 18.552 137.724 17.443 138.175 16.544 C 138.642 15.638 139.289 14.877 140.046 14.388 C 140.808 13.896 141.8 13.637 142.87 13.619 C 143.57 13.615 144.29 13.709 144.965 13.892 C 145.631 14.075 146.259 14.327 146.796 14.626 L 147.049 14.767 L 147.195 32.949 C 147.205 34.325 147.074 35.529 146.813 36.498 Z M 146.195 32.957 L 146.053 15.362 C 145.647 15.157 145.313 15.021 144.702 14.856 C 144.095 14.687 143.51 14.611 142.879 14.619 C 141.934 14.619 141.222 14.818 140.588 15.228 C 139.949 15.641 139.466 16.19 139.067 16.996 C 138.648 17.813 138.357 18.778 138.167 19.961 C 137.973 21.154 137.883 22.478 137.897 23.974 C 137.915 26.768 138.295 28.846 139.068 30.322 C 139.771 31.767 140.789 32.398 142.347 32.346 C 142.723 32.346 143.013 32.303 143.292 32.202 C 143.591 32.1 143.85 31.981 144.112 31.823 L 144.861 31.37 L 144.877 33.149 C 144.885 34.838 144.592 36.144 144.052 36.918 C 143.463 37.673 142.575 38.116 141.586 38.15 C 141.033 38.15 140.451 38.04 139.935 37.838 C 139.442 37.638 139.495 37.647 139.293 37.541 L 139.015 39.096 C 139.384 39.317 139.659 39.45 140.198 39.599 C 140.741 39.756 141.247 39.825 141.786 39.818 C 142.42 39.818 142.961 39.703 143.511 39.449 C 144.056 39.213 144.483 38.864 144.886 38.325 C 145.303 37.792 145.61 37.123 145.849 36.234 C 146.094 35.345 146.207 34.275 146.195 32.957 Z M 127.356 28.139 C 127.352 27.46 127.417 26.852 127.552 26.388 C 127.688 25.921 127.916 25.49 128.173 25.185 C 128.442 24.889 128.809 24.636 129.169 24.496 C 129.516 24.374 129.923 24.302 130.306 24.295 C 130.872 24.295 131.488 24.401 132.068 24.599 L 132.401 24.712 L 132.456 31.466 L 132.097 31.573 C 131.492 31.753 130.892 31.853 130.367 31.861 C 129.475 31.847 128.669 31.497 128.137 30.901 C 127.653 30.282 127.373 29.309 127.356 28.139 Z M 128.907 30.263 C 129.249 30.718 129.667 30.887 130.359 30.861 C 130.804 30.861 131.056 30.813 131.45 30.715 L 131.407 25.438 C 131.034 25.335 130.791 25.287 130.314 25.295 C 130.014 25.294 129.774 25.336 129.511 25.436 C 129.264 25.518 129.102 25.629 128.925 25.843 C 128.738 26.046 128.622 26.291 128.512 26.668 C 128.401 27.048 128.348 27.511 128.356 28.13 C 128.355 29.172 128.52 29.831 128.907 30.263 Z M 127.977 14 C 128.534 13.832 129.172 13.738 129.817 13.73 C 131.19 13.745 132.419 14.357 133.304 15.468 C 134.149 16.599 134.609 18.376 134.634 20.646 L 134.739 33.546 L 134.415 33.67 C 133.752 33.923 133.057 34.13 132.366 34.285 C 131.668 34.44 130.955 34.523 130.281 34.531 C 129.589 34.533 128.892 34.414 128.279 34.19 C 127.655 33.95 127.058 33.536 126.588 33.021 C 126.131 32.5 125.739 31.812 125.464 31.04 C 125.195 30.263 125.047 29.288 125.036 28.195 C 125.03 27.177 125.145 26.242 125.373 25.466 C 125.607 24.691 125.956 23.992 126.377 23.451 C 126.806 22.916 127.359 22.468 127.946 22.18 C 128.537 21.905 129.226 21.749 129.908 21.737 C 130.537 21.734 130.857 21.785 131.378 21.885 L 131.369 20.782 C 131.365 19.438 131.203 18.612 130.838 18.159 C 130.524 17.687 130.145 17.517 129.497 17.547 C 129.118 17.547 128.797 17.594 128.464 17.698 C 128.128 17.797 127.794 17.95 127.406 18.182 L 126.795 18.547 L 126.085 14.867 L 126.394 14.69 C 126.884 14.408 127.431 14.171 127.977 14 Z M 127.204 15.386 L 127.515 16.997 C 127.742 16.892 127.775 16.863 128.175 16.74 C 128.581 16.62 129.042 16.553 129.489 16.547 C 130.352 16.563 131.136 16.935 131.64 17.562 C 132.093 18.208 132.353 19.328 132.369 20.774 L 132.383 22.506 L 132.388 23.159 L 131.757 22.994 C 131.066 22.813 130.473 22.73 129.917 22.737 C 129.34 22.737 128.862 22.843 128.378 23.082 C 127.89 23.308 127.513 23.614 127.162 24.07 C 126.797 24.522 126.535 25.055 126.331 25.752 C 126.121 26.445 126.026 27.233 126.036 28.187 C 126.041 29.21 126.161 30.023 126.408 30.708 C 126.645 31.399 126.939 31.92 127.334 32.355 C 127.717 32.793 128.115 33.07 128.627 33.252 C 129.149 33.452 129.669 33.54 130.273 33.531 C 130.893 33.527 131.5 33.456 132.148 33.309 C 132.804 33.164 133.214 33.04 133.733 32.856 L 133.634 20.654 C 133.625 18.502 133.267 17.025 132.512 16.078 C 131.799 15.109 130.97 14.693 129.825 14.73 C 129.249 14.732 128.754 14.804 128.271 14.956 C 127.776 15.108 127.544 15.212 127.204 15.386 Z M 120.416 33.046 C 119.794 32.134 119.449 30.677 119.429 28.819 L 119.244 5.878 L 122.557 5.076 L 122.562 5.706 L 122.75 28.863 C 122.75 29.654 122.838 30.121 123.055 30.404 C 123.227 30.699 123.517 30.85 124.077 30.963 L 124.514 31.051 L 124.142 34.569 L 123.68 34.55 C 122.252 34.492 121.1 33.955 120.416 33.046 Z M 123.246 33.528 L 123.429 31.807 C 122.918 31.616 122.565 31.415 122.23 30.969 C 121.937 30.509 121.762 29.764 121.75 28.871 L 121.567 6.344 L 120.25 6.664 L 120.429 28.811 C 120.437 30.561 120.69 31.734 121.232 32.469 C 121.714 33.211 122.278 33.444 123.246 33.528 Z M 112.084 33.894 C 111.386 33.349 110.78 32.569 110.339 31.648 C 109.915 30.737 109.598 29.632 109.411 28.398 C 109.226 27.179 109.129 25.832 109.116 24.397 C 109.095 21.228 109.526 18.669 110.387 16.828 C 111.309 14.956 112.818 13.918 114.684 13.858 C 115.25 13.858 115.813 13.955 116.279 14.134 C 116.721 14.312 117.163 14.554 117.551 14.833 L 117.818 15.024 L 116.988 18.741 L 116.362 18.185 C 115.874 17.752 115.416 17.577 114.823 17.599 C 114.42 17.588 114.168 17.693 113.879 17.935 C 113.58 18.185 113.356 18.519 113.156 19.062 C 112.721 20.184 112.523 21.923 112.544 24.369 C 112.553 25.391 112.604 26.321 112.7 27.186 C 112.792 28.036 112.942 28.727 113.162 29.317 C 113.37 29.897 113.61 30.294 113.942 30.601 C 114.227 30.905 114.526 31.012 115.011 30.991 C 115.361 30.993 115.618 30.943 115.883 30.824 C 116.168 30.703 116.413 30.558 116.673 30.356 L 117.295 29.871 L 118.061 33.339 L 117.852 33.531 C 117.53 33.825 117.085 34.112 116.58 34.348 C 116.054 34.587 115.434 34.723 114.825 34.734 C 113.78 34.731 112.815 34.435 112.084 33.894 Z M 114.817 33.734 C 115.323 33.735 115.736 33.645 116.158 33.442 C 116.604 33.238 116.745 33.143 116.958 32.98 L 116.645 31.562 C 116.523 31.628 116.619 31.593 116.278 31.742 C 115.913 31.893 115.462 31.983 115.019 31.991 C 114.355 31.98 113.705 31.733 113.248 31.321 C 112.836 30.915 112.474 30.331 112.224 29.661 C 111.984 29.005 111.806 28.198 111.706 27.294 C 111.608 26.403 111.553 25.423 111.544 24.377 C 111.527 21.869 111.757 19.948 112.222 18.707 C 112.47 18.068 112.826 17.512 113.237 17.168 C 113.658 16.815 114.247 16.618 114.815 16.599 C 115.588 16.609 115.869 16.743 116.354 16.993 L 116.696 15.46 C 116.448 15.303 116.297 15.216 115.91 15.064 C 115.544 14.913 115.17 14.85 114.692 14.858 C 113.108 14.828 112.047 15.58 111.291 17.256 C 110.472 18.965 110.089 21.306 110.116 24.389 C 110.127 25.792 110.22 27.067 110.399 28.248 C 110.572 29.418 110.848 30.386 111.244 31.223 C 111.628 32.051 112.086 32.647 112.692 33.1 C 113.263 33.559 113.92 33.753 114.817 33.734 Z M 103.496 11.319 C 103.15 10.864 102.933 10.211 102.927 9.515 C 102.921 8.819 103.128 8.163 103.466 7.702 C 103.84 7.26 104.388 6.976 104.917 6.943 C 105.446 6.967 105.999 7.242 106.379 7.679 C 106.723 8.133 106.942 8.786 106.948 9.482 C 106.954 10.179 106.745 10.835 106.409 11.294 C 106.036 11.737 105.487 12.021 104.958 12.054 C 104.428 12.03 103.876 11.755 103.496 11.319 Z M 104.949 11.054 C 105.246 11.08 105.406 10.988 105.621 10.678 C 105.871 10.387 105.952 10.043 105.948 9.49 C 105.944 8.937 105.857 8.594 105.602 8.308 C 105.383 8.002 105.222 7.911 104.926 7.943 C 104.629 7.917 104.468 8.01 104.252 8.32 C 104.002 8.609 103.923 8.953 103.927 9.507 C 103.931 10.061 104.016 10.404 104.272 10.688 C 104.492 10.994 104.652 11.086 104.949 11.054 Z M 103.318 14.423 L 106.638 14.395 L 106.797 34.333 L 103.477 34.361 Z M 105.789 33.341 L 105.646 15.403 L 104.326 15.415 L 104.469 33.353 Z M 96.034 34.029 C 95.338 33.485 94.727 32.708 94.292 31.785 C 93.862 30.875 93.548 29.767 93.362 28.533 C 93.178 27.314 93.081 25.968 93.068 24.533 C 93.046 21.364 93.478 18.805 94.339 16.964 C 95.261 15.092 96.768 14.054 98.636 13.994 C 99.201 13.994 99.766 14.086 100.23 14.27 C 100.673 14.447 101.114 14.69 101.502 14.969 L 101.769 15.16 L 100.939 18.876 L 100.313 18.322 C 99.824 17.889 99.366 17.713 98.774 17.735 C 98.371 17.724 98.119 17.829 97.83 18.071 C 97.53 18.321 97.312 18.656 97.106 19.198 C 96.679 20.323 96.474 22.059 96.495 24.505 C 96.504 25.527 96.555 26.456 96.65 27.32 C 96.744 28.172 96.893 28.862 97.112 29.452 C 97.32 30.032 97.561 30.429 97.893 30.737 C 98.179 31.041 98.476 31.148 98.962 31.127 C 99.311 31.129 99.569 31.079 99.834 30.96 C 100.119 30.838 100.365 30.694 100.625 30.492 L 101.248 30.007 L 102.012 33.474 L 101.804 33.666 C 101.482 33.961 101.036 34.248 100.532 34.484 C 100.005 34.724 99.384 34.859 98.776 34.87 C 97.732 34.867 96.765 34.571 96.034 34.029 Z M 98.768 33.87 C 99.274 33.871 99.687 33.782 100.109 33.578 C 100.555 33.374 100.697 33.279 100.909 33.117 L 100.596 31.697 C 100.474 31.764 100.57 31.729 100.229 31.878 C 99.864 32.029 99.412 32.119 98.97 32.127 C 98.304 32.116 97.657 31.869 97.199 31.457 C 96.789 31.051 96.426 30.468 96.174 29.798 C 95.935 29.142 95.758 28.334 95.656 27.432 C 95.559 26.54 95.504 25.559 95.495 24.513 C 95.478 22.005 95.701 20.082 96.172 18.842 C 96.415 18.202 96.777 17.648 97.188 17.304 C 97.609 16.951 98.198 16.754 98.766 16.735 C 99.539 16.745 99.82 16.879 100.305 17.129 L 100.647 15.596 C 100.399 15.44 100.247 15.353 99.86 15.2 C 99.494 15.054 99.121 14.986 98.644 14.994 C 97.058 14.964 95.999 15.716 95.243 17.392 C 94.424 19.101 94.04 21.442 94.068 24.525 C 94.079 25.928 94.172 27.204 94.35 28.384 C 94.524 29.555 94.802 30.521 95.196 31.359 C 95.585 32.184 96.038 32.783 96.643 33.236 C 97.213 33.695 97.872 33.889 98.768 33.87 Z M 86.49 16.73 C 86.969 16.744 87.483 16.925 87.815 17.245 C 88.134 17.553 88.394 18.058 88.553 18.618 C 88.839 19.677 88.994 21.129 89.009 22.909 L 89.013 23.409 L 83.701 23.454 L 83.719 22.933 C 83.78 21.173 83.994 19.718 84.345 18.638 C 84.537 18.073 84.822 17.571 85.154 17.261 C 85.5 16.938 86.014 16.751 86.49 16.73 Z M 85.837 17.992 C 85.611 18.203 85.445 18.48 85.295 18.952 C 84.964 19.948 84.815 20.991 84.741 22.445 L 88.002 22.417 C 87.968 20.928 87.859 19.861 87.589 18.882 C 87.469 18.422 87.327 18.164 87.121 17.965 C 86.928 17.779 86.793 17.71 86.498 17.73 C 86.202 17.716 86.049 17.793 85.837 17.992 Z M 84.916 27.905 C 85.024 28.633 85.187 29.231 85.422 29.758 C 85.64 30.271 85.896 30.602 86.248 30.87 C 86.584 31.125 86.94 31.239 87.497 31.224 C 87.966 31.226 88.341 31.143 88.728 30.953 C 89.152 30.753 89.428 30.6 89.598 30.472 L 90.242 29.986 L 90.889 33.542 L 90.689 33.724 C 90.415 33.973 89.962 34.254 89.392 34.524 C 88.788 34.801 88.033 34.956 87.23 34.967 C 86.172 34.967 85.192 34.688 84.439 34.177 C 83.711 33.656 83.077 32.894 82.615 31.985 C 82.17 31.082 81.838 29.979 81.641 28.744 C 81.449 27.524 81.346 26.165 81.333 24.705 C 81.308 21.176 81.736 18.499 82.623 16.81 C 83.525 15.093 84.905 14.156 86.468 14.097 C 87.339 14.1 88.177 14.33 88.814 14.774 C 89.446 15.216 89.981 15.935 90.352 16.791 C 91.046 18.455 91.417 20.808 91.443 23.754 C 91.446 24.019 91.448 24.291 91.449 24.567 C 91.451 24.852 91.445 25.148 91.428 25.446 L 91.403 25.914 L 84.732 25.971 C 84.764 26.668 84.803 27.165 84.916 27.905 Z M 83.714 25.488 L 83.701 24.979 L 90.447 24.922 C 90.449 24.806 90.451 24.843 90.449 24.574 C 90.448 24.299 90.446 24.028 90.443 23.765 C 90.423 20.891 90.092 18.727 89.43 17.179 C 89.122 16.43 88.748 15.948 88.241 15.594 C 87.738 15.243 87.206 15.081 86.476 15.097 C 85.201 15.062 84.307 15.757 83.509 17.276 C 82.696 18.823 82.302 21.252 82.333 24.697 C 82.344 26.123 82.441 27.408 82.629 28.588 C 82.81 29.757 83.096 30.715 83.51 31.539 C 83.909 32.352 84.383 32.928 85.013 33.359 C 85.614 33.797 86.302 33.985 87.221 33.967 C 87.929 33.966 88.476 33.859 88.966 33.62 C 89.488 33.376 89.608 33.298 89.803 33.16 L 89.532 31.67 C 89.415 31.731 89.609 31.641 89.156 31.857 C 88.664 32.083 88.078 32.214 87.505 32.224 C 86.803 32.219 86.122 32.029 85.644 31.666 C 85.182 31.316 84.782 30.773 84.506 30.16 C 84.247 29.563 84.048 28.839 83.928 28.055 C 83.811 27.281 83.739 26.416 83.714 25.488 Z M 71.221 11.422 L 71.631 11.345 C 72.049 11.266 72.526 11.222 73.014 11.217 C 73.596 11.216 74.177 11.306 74.665 11.489 C 75.166 11.676 75.646 12.022 76.01 12.434 C 76.361 12.856 76.659 13.455 76.852 14.135 C 77.035 14.808 77.135 15.66 77.145 16.625 C 77.153 18.538 76.769 20.011 76.057 20.878 C 75.303 21.708 74.166 22.182 72.832 22.211 L 71.307 22.224 Z M 72.824 21.211 C 73.972 21.22 74.735 20.918 75.301 20.224 C 75.906 19.563 76.167 18.422 76.145 16.633 C 76.139 15.722 76.057 14.998 75.888 14.402 C 75.729 13.809 75.533 13.402 75.251 13.085 C 74.979 12.756 74.698 12.568 74.315 12.425 C 73.919 12.278 73.52 12.21 73.022 12.217 C 72.576 12.22 72.476 12.234 72.227 12.264 L 72.299 21.216 Z M 72.963 8.367 C 73.94 8.362 74.879 8.512 75.682 8.81 C 76.496 9.114 77.246 9.643 77.836 10.303 C 78.414 10.972 78.89 11.865 79.211 12.892 C 79.525 13.916 79.695 15.177 79.708 16.603 C 79.719 18.377 79.46 19.885 78.956 21.021 C 78.436 22.151 77.875 22.828 77.131 23.428 C 77.323 23.863 77.47 24.207 77.81 25.036 C 78.153 25.869 78.505 26.789 78.865 27.789 C 79.227 28.788 79.579 29.822 79.922 30.881 C 80.264 31.943 80.561 32.967 80.804 33.935 L 80.959 34.551 L 77.513 34.581 L 77.41 34.214 C 77.209 33.5 76.958 32.695 76.656 31.789 C 76.353 30.881 76.037 29.984 75.708 29.088 C 75.379 28.193 75.05 27.335 74.721 26.512 C 74.392 25.689 74.218 25.273 74.003 24.777 C 73.824 24.801 73.776 24.81 73.46 24.837 C 73.145 24.865 72.819 24.881 72.504 24.884 L 72.329 24.886 L 72.406 34.624 L 69.034 34.652 L 68.829 9.151 L 69.174 9.037 C 70.463 8.61 71.752 8.381 72.963 8.367 Z M 69.835 9.874 L 70.026 33.644 L 71.398 33.632 L 71.321 23.894 L 72.496 23.884 C 72.791 23.881 73.077 23.867 73.373 23.841 C 73.667 23.816 73.943 23.78 74.22 23.731 L 74.604 23.665 L 74.763 24.02 C 75.021 24.6 75.318 25.311 75.649 26.141 C 75.98 26.97 76.315 27.841 76.646 28.743 C 76.979 29.646 77.299 30.557 77.604 31.473 C 77.91 32.389 78.081 32.941 78.267 33.575 L 79.674 33.563 C 79.47 32.801 79.308 32.236 78.97 31.188 C 78.629 30.136 78.283 29.12 77.925 28.129 C 77.569 27.139 77.223 26.238 76.886 25.416 C 76.548 24.593 76.273 23.948 76.056 23.476 L 75.875 23.083 L 76.233 22.851 C 77.017 22.341 77.592 21.629 78.044 20.609 C 78.512 19.597 78.725 18.299 78.708 16.611 C 78.699 15.247 78.551 14.13 78.255 13.188 C 77.971 12.248 77.596 11.536 77.084 10.963 C 76.586 10.383 76.032 10.008 75.332 9.748 C 74.621 9.483 73.864 9.356 72.971 9.367 C 71.844 9.373 70.924 9.54 69.835 9.874 Z M 54.793 35.056 L 54.585 9.058 L 58.013 9.029 L 58.192 31.25 L 64.099 31.2 L 64.128 34.978 Z M 63.107 32.208 L 57.2 32.258 L 57.021 10.037 L 55.593 10.05 L 55.785 34.048 L 63.12 33.986 Z" style=""/>
  <path d="M 62.53 29.169 L 62.53 33.731 L 62.53 34.731 L 61.53 34.731 L 53.442 34.731 L 52.442 34.731 L 52.442 33.731 L 52.442 10.138 L 52.442 9.138 L 53.442 9.138 L 56.167 9.138 L 57.167 9.138 L 57.167 10.138 L 57.167 28.169 L 61.53 28.169 M 73.233 9.224 C 75.256 9.268 77.045 10.094 78.201 11.504 C 79.257 12.949 79.858 15.211 79.858 17.986 C 79.858 19.715 79.626 21.236 79.208 22.373 C 78.762 23.514 78.36 24.063 77.766 24.707 C 77.939 25.15 78.027 25.377 78.299 26.148 C 78.57 26.917 78.84 27.726 79.104 28.562 C 79.369 29.4 79.628 30.282 79.876 31.188 C 80.122 32.091 80.352 32.984 80.564 33.852 L 80.865 35.089 L 79.592 35.089 L 76.535 35.089 L 75.781 35.089 L 75.574 34.365 C 75.353 33.594 75.128 32.811 74.901 32.015 C 74.676 31.228 74.447 30.47 74.211 29.728 C 73.974 28.986 73.742 28.289 73.512 27.626 C 73.284 26.972 73.228 26.833 73.087 26.476 L 72.412 26.476 L 73.412 26.476 L 73.412 25.476 L 73.412 34.089 L 73.412 35.089 L 72.412 35.089 L 69.687 35.089 L 68.687 35.089 L 68.687 34.089 L 68.687 10.837 L 68.687 10.145 L 69.33 9.903 C 69.977 9.659 70.698 9.469 71.388 9.37 C 72.054 9.275 73.091 9.234 73.091 9.234 M 73.535 15.741 C 73.535 15.741 73.118 15.757 73.003 15.775 C 72.846 15.798 72.707 15.819 72.574 15.841 L 73.412 15.703 L 73.412 14.854 L 73.412 21.254 L 73.412 20.254 L 72.412 20.254 L 73.181 20.254 C 74.045 20.281 74.404 20.2 74.634 19.842 C 74.966 19.548 75.046 19.029 75.046 17.952 C 75.046 16.926 74.972 16.442 74.637 16.161 C 74.384 15.804 74.091 15.721 73.39 15.752 M 80.338 34.089 L 80.338 10.496 L 80.338 9.496 L 81.338 9.496 L 89.513 9.496 L 90.513 9.496 L 90.513 10.496 L 90.513 14.956 L 90.513 15.956 L 89.513 15.956 L 85.063 15.956 L 85.063 18.586 L 88.902 18.586 L 89.902 18.586 L 89.902 19.586 L 89.902 23.944 L 89.902 24.944 L 88.902 24.944 L 85.063 24.944 L 85.063 28.63 L 89.915 28.63 L 90.915 28.63 L 90.915 29.63 L 90.915 34.089 L 90.915 35.089 L 89.915 35.089 L 81.338 35.089 M 97.443 35.566 C 95.185 35.473 93.235 34.124 92.045 31.801 C 90.971 29.533 90.399 26.286 90.399 22.276 C 90.399 20.279 90.568 18.436 90.89 16.849 C 91.221 15.259 91.698 13.836 92.275 12.709 C 92.878 11.567 93.682 10.591 94.535 9.957 C 95.426 9.344 96.539 8.951 97.582 8.951 C 98.173 8.951 98.806 9.06 99.313 9.23 C 99.777 9.395 100.241 9.613 100.605 9.831 C 100.959 10.052 101.31 10.32 101.565 10.563 C 101.787 10.78 101.977 10.98 102.096 11.124 L 102.389 11.477 L 102.305 11.936 L 101.519 16.226 L 101.162 18.171 L 99.816 16.741 C 99.5 16.406 99.185 16.168 98.751 15.934 C 98.379 15.71 98.058 15.65 97.548 15.65 C 97.285 15.65 97.156 15.675 96.877 15.886 C 96.582 16.06 96.392 16.312 96.14 16.826 C 95.863 17.351 95.664 17.996 95.489 18.893 C 95.314 19.791 95.228 20.852 95.228 22.174 C 95.228 23.233 95.286 24.184 95.404 25.093 C 95.519 25.98 95.686 26.667 95.934 27.282 C 96.17 27.869 96.388 28.226 96.748 28.528 C 97.031 28.828 97.232 28.868 97.687 28.868 C 98.019 28.868 98.236 28.845 98.478 28.771 C 98.751 28.693 98.941 28.621 99.137 28.517 C 99.335 28.42 99.451 28.345 99.588 28.223 C 99.77 28.068 99.929 27.928 100.075 27.797 L 101.415 26.589 L 101.729 28.366 L 102.48 32.622 L 102.563 33.094 L 102.259 33.442 C 101.794 33.972 101.105 34.507 100.332 34.908 C 99.52 35.33 97.904 35.453 97.904 35.453 M 103.242 9.496 L 105.967 9.496 L 106.967 9.496 L 106.967 10.496 L 106.967 34.089 L 106.967 35.089 L 105.967 35.089 L 103.242 35.089 L 102.242 35.089 L 102.242 34.089 L 102.242 10.496 M 114.281 35.566 C 112.023 35.473 110.073 34.124 108.883 31.801 C 107.809 29.533 107.237 26.286 107.237 22.276 C 107.237 20.279 107.406 18.436 107.728 16.849 C 108.059 15.259 108.536 13.836 109.113 12.709 C 109.717 11.567 110.522 10.591 111.374 9.957 C 112.265 9.344 113.378 8.951 114.421 8.951 C 115.011 8.951 115.644 9.06 116.151 9.23 C 116.615 9.395 117.079 9.613 117.443 9.831 C 117.797 10.052 118.148 10.32 118.403 10.563 C 118.625 10.78 118.815 10.98 118.934 11.124 L 119.227 11.477 L 119.143 11.936 L 118.357 16.226 L 118 18.171 L 116.654 16.741 C 116.338 16.406 116.023 16.167 115.589 15.934 C 115.218 15.71 114.897 15.65 114.386 15.65 C 114.123 15.65 113.994 15.675 113.715 15.886 C 113.42 16.06 113.229 16.312 112.978 16.826 C 112.701 17.35 112.5 17.995 112.327 18.893 C 112.149 19.79 112.067 20.852 112.067 22.174 C 112.067 23.233 112.124 24.185 112.242 25.093 C 112.357 25.98 112.524 26.667 112.772 27.282 C 113.008 27.869 113.226 28.226 113.586 28.528 C 113.869 28.828 114.071 28.868 114.525 28.868 C 114.857 28.868 115.075 28.846 115.315 28.771 C 115.588 28.694 115.777 28.622 115.975 28.518 C 116.173 28.419 116.289 28.34 116.426 28.223 C 116.608 28.068 116.768 27.927 116.916 27.795 L 118.255 26.596 L 118.568 28.366 L 119.319 32.622 L 119.402 33.095 L 119.097 33.443 C 118.631 33.973 117.943 34.507 117.17 34.908 C 116.358 35.33 114.742 35.453 114.742 35.453 M 129.168 29.527 L 129.168 34.089 L 129.168 35.089 L 128.168 35.089 L 120.08 35.089 L 119.08 35.089 L 119.08 34.089 L 119.08 10.496 L 119.08 9.496 L 120.08 9.496 L 122.806 9.496 L 123.806 9.496 L 123.806 10.496 L 123.806 28.527 L 128.168 28.527 M 137.573 34.244 C 137.446 33.433 137.305 32.607 137.149 31.749 C 136.992 30.885 136.936 30.572 136.832 29.983 L 133.792 29.983 C 133.688 30.572 133.632 30.885 133.475 31.749 C 133.319 32.606 133.178 33.433 133.051 34.244 L 132.919 35.089 L 132.063 35.089 L 129.233 35.089 L 128.039 35.089 L 128.249 33.913 C 128.703 31.369 129.135 29.015 129.543 26.856 C 129.951 24.697 130.352 22.658 130.742 20.748 C 131.133 18.838 131.52 17.019 131.899 15.302 C 132.279 13.582 132.675 11.895 133.084 10.254 L 133.272 9.496 L 134.054 9.496 L 136.657 9.496 L 137.444 9.496 L 137.629 10.26 C 138.026 11.899 138.418 13.581 138.804 15.299 C 139.189 17.017 139.578 18.837 139.969 20.748 C 140.359 22.658 140.76 24.697 141.169 26.857 C 141.576 29.015 142.008 31.369 142.462 33.913 L 142.672 35.089 L 141.478 35.089 L 138.561 35.089 M 134.315 16.039 C 134.384 16.38 133.397 23.366 133.595 23.054 C 133.697 22.893 137.177 23.154 137.108 22.944 C 137.024 22.688 136.276 16.034 136.276 16.034 M 148.518 15.582 C 148.033 15.559 147.803 15.654 147.478 15.897 C 147.139 16.151 146.93 16.442 146.692 17.022 C 146.172 18.284 145.92 19.967 145.92 22.276 C 145.92 23.4 145.984 24.376 146.118 25.278 C 146.248 26.168 146.426 26.862 146.683 27.479 C 146.918 28.075 147.137 28.419 147.472 28.696 C 147.738 28.977 147.894 29.004 148.274 29.004 C 148.556 29.004 148.762 28.996 148.945 28.976 C 149.098 28.963 149.148 28.954 149.234 28.911 L 148.619 29.218 L 148.619 29.834 L 148.619 21.629 L 148.619 20.629 L 149.619 20.629 L 152.344 20.629 L 153.344 20.629 L 153.344 21.629 L 153.344 33.306 L 153.344 33.81 L 152.953 34.1 C 152.549 34.398 151.904 34.734 151.138 35.037 C 150.312 35.349 149.238 35.532 148.099 35.532 C 147.034 35.532 145.913 35.137 145.033 34.52 C 144.2 33.884 143.408 32.916 142.838 31.781 C 142.279 30.666 141.835 29.248 141.535 27.669 C 141.243 26.097 141.09 24.269 141.09 22.276 C 141.09 20.256 141.259 18.408 141.583 16.831 C 141.912 15.252 142.389 13.835 142.966 12.708 C 143.568 11.569 144.359 10.597 145.192 9.964 C 146.064 9.349 147.15 8.951 148.152 8.951 C 148.793 8.951 149.462 9.054 150.004 9.221 C 150.51 9.385 151.004 9.6 151.388 9.818 C 151.762 10.039 152.129 10.308 152.394 10.554 C 152.625 10.773 152.823 10.978 152.944 11.124 L 153.237 11.477 L 153.152 11.938 L 152.366 16.193 L 152.009 18.127 L 150.664 16.706 C 150.343 16.367 150.021 16.116 149.592 15.869 C 149.41 15.757 149.28 15.707 149.082 15.654 C 148.883 15.6 148.259 15.548 148.259 15.548 M 153.876 34.089 L 153.876 10.496 L 153.876 9.496 L 154.876 9.496 L 163.051 9.496 L 164.051 9.496 L 164.051 10.496 L 164.051 14.956 L 164.051 15.956 L 163.051 15.956 L 158.601 15.956 L 158.601 18.586 L 162.44 18.586 L 163.44 18.586 L 163.44 19.586 L 163.44 23.944 L 163.44 24.944 L 162.44 24.944 L 158.601 24.944 L 158.601 28.63 L 163.453 28.63 L 164.453 28.63 L 164.453 29.63 L 164.453 34.089 L 164.453 35.089 L 163.453 35.089 L 154.876 35.089 M 169.638 10.226 C 169.85 10.983 170.096 11.923 170.371 13.03 C 170.646 14.135 170.932 15.334 171.23 16.62 C 171.528 17.906 171.823 19.223 172.115 20.565 C 172.407 21.905 172.68 23.165 172.936 24.345 L 171.961 19.849 L 170.982 24.344 C 171.239 23.165 171.512 21.904 171.803 20.565 C 172.096 19.223 172.391 17.906 172.689 16.62 C 172.987 15.334 173.273 14.136 173.548 13.03 C 173.823 11.923 174.069 10.983 174.281 10.226 L 174.486 9.496 L 175.244 9.496 L 177.724 9.496 L 178.652 9.496 L 178.721 10.421 C 178.839 11.994 178.946 13.76 179.046 15.705 C 179.145 17.65 179.233 19.677 179.308 21.78 C 179.384 23.882 179.454 25.989 179.519 28.102 C 179.583 30.213 179.638 32.202 179.685 34.064 L 179.711 35.089 L 178.685 35.089 L 176.03 35.089 L 175.045 35.089 L 175.03 34.104 C 174.995 31.814 174.948 29.32 174.89 26.621 C 174.832 23.926 174.745 21.212 174.629 18.471 L 174.953 26.14 L 176.605 18.644 C 176.395 19.597 176.161 20.653 175.905 21.811 C 175.65 22.967 175.397 24.122 175.146 25.279 C 174.896 26.438 174.654 27.546 174.42 28.603 C 174.188 29.657 173.99 30.558 173.827 31.306 L 173.656 32.093 L 172.85 32.093 L 170.946 32.093 L 170.14 32.093 L 169.969 31.306 C 169.806 30.558 169.608 29.657 169.375 28.602 C 169.142 27.545 168.901 26.437 168.65 25.278 C 168.4 24.122 168.147 22.967 167.892 21.811 C 167.635 20.653 167.401 19.597 167.192 18.643 L 168.84 26.159 L 169.168 18.472 C 169.051 21.212 168.965 23.926 168.907 26.621 C 168.849 29.32 168.802 31.814 168.767 34.104 L 168.752 35.089 L 167.767 35.089 L 165.112 35.089 L 164.087 35.089 L 164.112 34.064 C 164.158 32.202 164.214 30.213 164.278 28.102 C 164.343 25.989 164.413 23.881 164.488 21.78 C 164.564 19.677 164.651 17.65 164.75 15.705 C 164.85 13.76 164.958 11.994 165.076 10.422 L 165.145 9.496 L 166.073 9.496 L 168.675 9.496" style="fill: rgb(51, 51, 51); text-transform: uppercase; white-space: pre;"/>
  <path d="M 66.148 26.571 L 58.642 26.571 L 58.642 15.833 L 61.834 15.833 L 61.834 23.688 L 66.148 23.688 Z M 60.834 24.688 L 60.834 16.833 L 59.642 16.833 L 59.642 25.571 L 65.148 25.571 L 65.148 24.688 Z M 75.063 15.869 C 76.581 15.869 77.848 16.164 78.699 16.733 C 79.582 17.323 80.088 18.368 80.088 19.572 C 80.088 20.324 79.885 21.037 79.519 21.534 C 79.162 22.019 78.925 22.17 78.521 22.414 C 78.61 22.536 78.571 22.474 78.791 22.795 C 79.01 23.114 79.23 23.453 79.444 23.8 C 79.659 24.149 79.871 24.518 80.071 24.895 C 80.271 25.27 80.458 25.644 80.63 26.005 L 80.968 26.719 L 77.425 26.719 L 77.282 26.463 C 77.104 26.144 76.924 25.821 76.741 25.493 C 76.561 25.17 76.38 24.862 76.191 24.558 C 76.001 24.253 75.817 23.968 75.633 23.696 C 75.452 23.429 75.374 23.327 75.246 23.164 L 74.902 23.164 L 74.902 26.719 L 71.71 26.719 L 71.71 16.21 L 72.114 16.131 C 72.607 16.035 73.131 15.965 73.656 15.926 C 74.175 15.888 74.65 15.869 75.063 15.869 Z M 73.729 16.923 C 73.233 16.96 73.041 16.987 72.71 17.04 L 72.71 25.719 L 73.902 25.719 L 73.902 22.164 L 75.719 22.164 L 75.869 22.344 C 76.064 22.579 76.266 22.849 76.46 23.135 C 76.651 23.416 76.846 23.717 77.04 24.03 C 77.236 24.344 77.429 24.673 77.614 25.006 C 77.797 25.334 77.881 25.484 78.012 25.719 L 79.373 25.719 C 79.313 25.602 79.382 25.73 79.188 25.365 C 78.995 25.002 78.799 24.659 78.593 24.324 C 78.385 23.988 78.179 23.67 77.967 23.361 C 77.756 23.055 77.562 22.792 77.372 22.556 L 76.945 22.029 L 77.57 21.78 C 78.107 21.567 78.444 21.308 78.714 20.941 C 78.976 20.586 79.088 20.188 79.088 19.572 C 79.088 18.585 78.815 18.013 78.143 17.564 C 77.439 17.093 76.468 16.869 75.063 16.869 C 74.67 16.869 74.232 16.887 73.729 16.923 Z M 77.028 18.103 C 77.507 18.371 77.825 18.963 77.825 19.558 C 77.825 20.168 77.516 20.771 77.042 21.045 C 76.611 21.294 75.888 21.418 75.021 21.421 L 73.902 21.421 L 73.902 17.82 L 74.361 17.781 C 74.474 17.772 74.596 17.762 74.724 17.753 C 74.86 17.743 75.022 17.737 75.189 17.737 C 75.938 17.737 76.598 17.863 77.028 18.103 Z M 75.189 18.737 C 75.083 18.737 74.989 18.74 74.902 18.744 L 74.902 20.421 L 75.021 20.421 C 75.802 20.425 76.259 20.342 76.541 20.18 C 76.779 20.042 76.825 19.942 76.825 19.558 C 76.825 19.198 76.783 19.111 76.54 18.976 C 76.249 18.813 75.845 18.737 75.189 18.737 Z M 81.082 15.981 L 88.658 15.981 L 88.658 18.822 L 84.274 18.822 L 84.274 19.733 L 88.167 19.733 L 88.167 22.532 L 84.274 22.532 L 84.274 23.878 L 88.982 23.878 L 88.982 26.719 L 81.082 26.719 Z M 87.982 25.719 L 87.982 24.878 L 83.274 24.878 L 83.274 21.532 L 87.167 21.532 L 87.167 20.733 L 83.274 20.733 L 83.274 17.822 L 87.658 17.822 L 87.658 16.981 L 82.082 16.981 L 82.082 25.719 Z M 94.537 26.916 C 92.868 26.916 91.461 26.4 90.555 25.438 C 89.653 24.48 89.175 23.042 89.175 21.343 C 89.175 20.494 89.318 19.68 89.59 19 C 89.861 18.323 90.265 17.702 90.743 17.229 C 91.222 16.755 91.838 16.367 92.495 16.124 C 93.147 15.884 93.896 15.756 94.65 15.756 C 95.082 15.756 95.501 15.79 95.863 15.855 C 96.213 15.919 96.539 15.996 96.809 16.081 C 97.078 16.166 97.326 16.262 97.515 16.357 C 97.69 16.445 97.833 16.522 97.922 16.577 L 98.264 16.788 L 97.3 19.487 L 96.79 19.213 C 96.517 19.066 96.217 18.951 95.842 18.845 C 95.48 18.743 95.097 18.695 94.622 18.695 C 94.326 18.695 94.079 18.737 93.795 18.836 C 93.525 18.93 93.336 19.049 93.127 19.258 C 92.919 19.466 92.777 19.696 92.644 20.045 C 92.512 20.391 92.452 20.777 92.452 21.301 C 92.452 21.721 92.494 22.079 92.584 22.436 C 92.67 22.777 92.784 23.017 92.971 23.255 C 93.153 23.487 93.345 23.636 93.65 23.776 C 93.951 23.915 94.275 23.977 94.734 23.977 C 95.036 23.977 95.285 23.96 95.518 23.926 C 95.759 23.89 95.957 23.851 96.139 23.803 C 96.319 23.756 96.455 23.71 96.585 23.653 C 96.733 23.588 96.864 23.53 96.983 23.475 L 97.486 23.243 L 98.402 25.907 L 98.056 26.113 C 97.708 26.319 97.208 26.517 96.619 26.674 C 96.022 26.833 95.306 26.916 94.537 26.916 Z M 96.362 25.708 C 96.897 25.565 96.963 25.532 97.184 25.439 L 96.9 24.614 C 96.9 24.614 97.138 24.503 96.986 24.569 C 96.816 24.644 96.606 24.715 96.392 24.771 C 96.181 24.826 95.929 24.876 95.664 24.915 C 95.391 24.955 95.069 24.977 94.734 24.977 C 94.181 24.977 93.643 24.874 93.232 24.685 C 92.825 24.497 92.441 24.201 92.183 23.872 C 91.929 23.547 91.725 23.117 91.614 22.681 C 91.508 22.261 91.452 21.78 91.452 21.301 C 91.452 20.7 91.541 20.131 91.709 19.69 C 91.876 19.252 92.132 18.84 92.42 18.551 C 92.707 18.264 93.09 18.023 93.467 17.892 C 93.829 17.766 94.242 17.695 94.622 17.695 C 95.158 17.695 95.679 17.76 96.113 17.883 C 96.535 18.002 96.539 18.015 96.736 18.093 L 97.041 17.238 C 96.899 17.169 96.732 17.105 96.509 17.035 C 96.273 16.961 96.009 16.898 95.685 16.84 C 95.372 16.783 95.042 16.756 94.65 16.756 C 93.98 16.756 93.407 16.854 92.841 17.062 C 92.281 17.269 91.848 17.542 91.446 17.94 C 91.044 18.338 90.754 18.784 90.519 19.372 C 90.285 19.956 90.175 20.581 90.175 21.343 C 90.175 22.885 90.526 23.948 91.283 24.752 C 92.035 25.551 93.04 25.916 94.537 25.916 C 95.249 25.916 95.835 25.848 96.362 25.708 Z M 101.894 15.981 L 101.894 26.719 L 98.702 26.719 L 98.702 15.981 Z M 99.702 25.719 L 100.894 25.719 L 100.894 16.981 L 99.702 16.981 Z M 108.082 26.916 C 106.413 26.916 105.006 26.4 104.1 25.438 C 103.198 24.48 102.72 23.042 102.72 21.343 C 102.72 20.494 102.863 19.68 103.135 19 C 103.406 18.323 103.809 17.702 104.288 17.229 C 104.766 16.755 105.383 16.367 106.04 16.124 C 106.692 15.884 107.441 15.756 108.194 15.756 C 108.627 15.756 109.046 15.79 109.407 15.855 C 109.758 15.919 110.084 15.996 110.354 16.081 C 110.623 16.166 110.87 16.262 111.06 16.357 C 111.235 16.445 111.378 16.522 111.467 16.577 L 111.808 16.788 L 110.844 19.487 L 110.335 19.213 C 110.061 19.066 109.762 18.951 109.386 18.845 C 109.025 18.743 108.641 18.695 108.166 18.695 C 107.871 18.695 107.624 18.737 107.34 18.836 C 107.07 18.93 106.881 19.049 106.672 19.258 C 106.464 19.466 106.321 19.696 106.189 20.045 C 106.057 20.391 105.996 20.777 105.996 21.301 C 105.996 21.721 106.038 22.079 106.129 22.436 C 106.215 22.777 106.329 23.017 106.515 23.255 C 106.698 23.487 106.89 23.636 107.195 23.776 C 107.496 23.915 107.82 23.977 108.279 23.977 C 108.581 23.977 108.83 23.96 109.063 23.926 C 109.304 23.89 109.502 23.851 109.684 23.803 C 109.864 23.756 110 23.71 110.13 23.653 C 110.278 23.588 110.409 23.53 110.528 23.475 L 111.031 23.243 L 111.947 25.907 L 111.601 26.113 C 111.253 26.319 110.752 26.517 110.164 26.674 C 109.567 26.833 108.851 26.916 108.082 26.916 Z M 109.906 25.708 C 110.442 25.565 110.508 25.532 110.729 25.439 L 110.445 24.614 C 110.445 24.614 110.683 24.503 110.531 24.569 C 110.361 24.644 110.151 24.715 109.937 24.771 C 109.726 24.826 109.474 24.876 109.209 24.915 C 108.936 24.955 108.614 24.977 108.279 24.977 C 107.726 24.977 107.188 24.874 106.777 24.685 C 106.37 24.497 105.986 24.201 105.728 23.872 C 105.474 23.547 105.27 23.117 105.159 22.681 C 105.053 22.261 104.996 21.78 104.996 21.301 C 104.996 20.7 105.086 20.131 105.254 19.69 C 105.421 19.252 105.676 18.84 105.965 18.551 C 106.252 18.264 106.635 18.023 107.011 17.892 C 107.374 17.766 107.787 17.695 108.166 17.695 C 108.703 17.695 109.224 17.76 109.658 17.883 C 110.079 18.002 110.084 18.015 110.281 18.093 L 110.586 17.238 C 110.444 17.169 110.277 17.105 110.054 17.035 C 109.818 16.961 109.553 16.898 109.23 16.84 C 108.916 16.783 108.586 16.756 108.194 16.756 C 107.524 16.756 106.952 16.854 106.386 17.062 C 105.826 17.269 105.393 17.542 104.991 17.94 C 104.589 18.338 104.299 18.784 104.064 19.372 C 103.83 19.956 103.72 20.581 103.72 21.343 C 103.72 22.885 104.071 23.948 104.828 24.752 C 105.58 25.551 106.585 25.916 108.082 25.916 C 108.794 25.916 109.38 25.848 109.906 25.708 Z M 112.247 26.719 L 112.247 15.981 L 115.439 15.981 L 115.439 23.836 L 119.753 23.836 L 119.753 25.723 C 120.077 24.798 120.386 23.935 120.68 23.137 C 121.009 22.245 121.332 21.4 121.648 20.61 C 121.963 19.82 122.274 19.066 122.58 18.356 C 122.887 17.643 123.208 16.942 123.538 16.262 L 123.675 15.981 L 126.398 15.981 L 126.534 16.267 C 126.854 16.945 127.171 17.643 127.481 18.353 C 127.792 19.065 128.107 19.819 128.422 20.61 C 128.737 21.4 129.06 22.245 129.389 23.137 C 129.718 24.03 130.066 25.003 130.432 26.055 L 130.664 26.719 L 127.243 26.719 L 127.135 26.365 C 127.034 26.033 126.923 25.697 126.798 25.347 C 126.671 24.989 126.625 24.856 126.54 24.611 L 123.459 24.611 C 123.374 24.856 123.328 24.989 123.201 25.347 C 123.077 25.697 122.965 26.033 122.864 26.365 L 122.756 26.719 Z M 114.439 24.836 L 114.439 16.981 L 113.247 16.981 L 113.247 25.719 L 118.753 25.719 L 118.753 24.836 Z M 129.255 25.719 C 128.976 24.924 128.778 24.371 128.451 23.483 C 128.124 22.596 127.806 21.764 127.493 20.98 C 127.181 20.197 126.872 19.457 126.565 18.754 C 126.257 18.05 126.035 17.56 125.764 16.981 L 124.302 16.981 C 124.025 17.56 123.801 18.049 123.499 18.751 C 123.196 19.455 122.889 20.196 122.576 20.98 C 122.264 21.764 121.945 22.596 121.619 23.483 C 121.292 24.371 121.094 24.924 120.814 25.719 L 122.019 25.719 C 122.094 25.487 122.131 25.373 122.259 25.012 C 122.385 24.657 122.508 24.304 122.63 23.949 L 122.745 23.611 L 127.254 23.611 L 127.37 23.949 C 127.491 24.304 127.614 24.657 127.74 25.012 C 127.868 25.373 127.905 25.487 127.98 25.719 Z M 125.677 19.084 C 125.77 19.326 125.879 19.604 126.005 19.922 C 126.133 20.244 126.269 20.601 126.411 20.988 C 126.552 21.374 126.698 21.779 126.848 22.201 L 127.085 22.869 L 122.9 22.869 L 123.137 22.201 C 123.288 21.777 123.437 21.37 123.583 20.983 C 123.729 20.599 123.863 20.247 123.985 19.928 C 124.106 19.609 124.214 19.328 124.308 19.084 C 124.4 18.844 124.467 18.663 124.511 18.529 L 124.942 17.232 L 125.45 18.501 C 125.507 18.644 125.583 18.839 125.677 19.084 Z M 124.995 20.086 C 124.97 20.151 124.945 20.217 124.919 20.285 C 124.797 20.603 124.664 20.953 124.519 21.337 C 124.375 21.719 124.387 21.688 124.321 21.869 L 125.667 21.869 C 125.601 21.686 125.612 21.715 125.472 21.332 C 125.332 20.951 125.201 20.606 125.076 20.291 C 125.048 20.221 125.021 20.153 124.995 20.086 Z M 125.001 20.071 L 125.028 20.139 C 125.028 20.139 125.337 19.195 125.241 19.443 C 125.169 19.63 125.089 19.839 125.001 20.071 Z M 135.623 18.667 C 134.692 18.667 134.175 18.862 133.8 19.33 C 133.405 19.823 133.228 20.43 133.228 21.343 C 133.228 21.789 133.275 22.152 133.377 22.504 C 133.477 22.848 133.601 23.094 133.793 23.335 C 133.981 23.57 134.169 23.716 134.454 23.846 C 134.738 23.977 135.025 24.033 135.426 24.033 C 135.656 24.033 135.846 24.029 136.008 24.02 L 136.008 20.576 L 139.2 20.576 L 139.2 26.239 L 138.883 26.361 C 138.593 26.473 138.129 26.596 137.535 26.716 C 136.925 26.839 136.159 26.902 135.286 26.902 C 134.513 26.902 133.76 26.774 133.121 26.532 C 132.477 26.289 131.876 25.901 131.415 25.43 C 130.955 24.96 130.573 24.339 130.327 23.665 C 130.081 22.992 129.952 22.188 129.952 21.343 C 129.952 20.485 130.095 19.668 130.367 18.992 C 130.638 18.32 131.042 17.701 131.519 17.229 C 131.997 16.756 132.604 16.369 133.247 16.126 C 133.885 15.884 134.61 15.756 135.328 15.756 C 135.805 15.756 136.261 15.79 136.653 15.854 C 137.036 15.917 137.386 15.994 137.67 16.079 C 137.953 16.163 138.211 16.26 138.406 16.355 C 138.587 16.442 138.734 16.521 138.825 16.577 L 139.168 16.788 L 138.202 19.472 L 137.693 19.199 C 137.417 19.051 137.118 18.932 136.75 18.822 C 136.399 18.716 136.048 18.667 135.623 18.667 Z M 137.039 17.864 C 137.449 17.988 137.45 17.999 137.641 18.076 L 137.942 17.241 C 137.796 17.172 137.621 17.108 137.384 17.037 C 137.135 16.963 136.847 16.9 136.49 16.841 C 136.142 16.784 135.769 16.756 135.328 16.756 C 134.697 16.756 134.152 16.853 133.601 17.061 C 133.054 17.268 132.626 17.541 132.223 17.939 C 131.82 18.338 131.53 18.783 131.295 19.366 C 131.062 19.945 130.952 20.571 130.952 21.343 C 130.952 22.109 131.053 22.738 131.266 23.321 C 131.478 23.902 131.747 24.34 132.13 24.731 C 132.513 25.122 132.928 25.39 133.474 25.597 C 134.024 25.805 134.597 25.902 135.286 25.902 C 136.118 25.902 136.785 25.847 137.337 25.736 C 137.904 25.622 137.981 25.598 138.2 25.536 L 138.2 21.576 L 137.008 21.576 L 137.008 24.869 L 136.613 24.951 C 136.46 24.983 136.269 25.008 136.079 25.018 C 135.897 25.028 135.675 25.033 135.426 25.033 C 134.928 25.033 134.428 24.934 134.038 24.755 C 133.649 24.577 133.274 24.287 133.012 23.96 C 132.755 23.638 132.542 23.215 132.417 22.782 C 132.294 22.356 132.228 21.853 132.228 21.343 C 132.228 20.289 132.506 19.346 133.02 18.705 C 133.553 18.04 134.512 17.667 135.623 17.667 C 136.116 17.667 136.613 17.736 137.039 17.864 Z M 140.237 15.981 L 147.814 15.981 L 147.814 18.822 L 143.429 18.822 L 143.429 19.733 L 147.322 19.733 L 147.322 22.532 L 143.429 22.532 L 143.429 23.878 L 148.137 23.878 L 148.137 26.719 L 140.237 26.719 Z M 147.137 25.719 L 147.137 24.878 L 142.429 24.878 L 142.429 21.532 L 146.322 21.532 L 146.322 20.733 L 142.429 20.733 L 142.429 17.822 L 146.814 17.822 L 146.814 16.981 L 141.237 16.981 L 141.237 25.719 Z M 152.276 16.242 C 152.448 16.557 152.648 16.949 152.871 17.408 C 153.092 17.866 153.325 18.364 153.565 18.896 C 153.805 19.428 154.044 19.974 154.279 20.53 C 154.513 21.082 154.414 20.847 154.479 21.002 C 154.545 20.847 154.445 21.082 154.679 20.53 C 154.915 19.974 155.153 19.428 155.394 18.896 C 155.634 18.364 155.866 17.866 156.088 17.408 C 156.31 16.949 156.51 16.557 156.682 16.242 L 156.824 15.981 L 159.549 15.981 L 159.611 16.409 C 159.706 17.062 159.794 17.797 159.874 18.603 C 159.954 19.407 160.025 20.248 160.086 21.118 C 160.147 21.986 160.203 22.858 160.255 23.73 C 160.307 24.603 160.351 25.425 160.389 26.195 L 160.414 26.719 L 157.268 26.719 L 157.254 26.234 C 157.226 25.289 157.188 24.262 157.141 23.149 C 157.123 22.715 157.101 22.28 157.076 21.845 C 156.956 22.126 156.836 22.408 156.718 22.689 C 156.516 23.168 156.321 23.626 156.133 24.063 C 155.946 24.498 155.787 24.869 155.656 25.178 L 155.527 25.482 L 153.333 25.482 L 153.204 25.178 C 153.073 24.869 152.914 24.498 152.727 24.063 C 152.539 23.626 152.344 23.168 152.143 22.689 C 152.024 22.408 151.904 22.126 151.784 21.845 C 151.759 22.28 151.737 22.715 151.719 23.149 C 151.672 24.262 151.635 25.289 151.607 26.234 L 151.592 26.719 L 148.446 26.719 L 148.471 26.195 C 148.509 25.425 148.554 24.603 148.605 23.73 C 148.657 22.858 148.713 21.986 148.774 21.118 C 148.835 20.248 148.906 19.407 148.986 18.603 C 149.066 17.797 149.154 17.062 149.249 16.409 L 149.311 15.981 L 152.134 15.981 Z M 150.179 16.981 C 150.109 17.507 150.06 17.905 149.981 18.701 C 149.902 19.499 149.832 20.325 149.772 21.188 C 149.711 22.053 149.655 22.92 149.603 23.789 C 149.552 24.659 149.528 25.107 149.497 25.719 L 150.622 25.719 C 150.648 24.907 150.673 24.223 150.72 23.107 C 150.767 21.987 150.838 20.852 150.932 19.714 L 151.097 17.709 L 151.89 19.558 C 152.058 19.951 152.245 20.386 152.451 20.864 C 152.658 21.343 152.862 21.822 153.064 22.301 C 153.265 22.778 153.459 23.233 153.646 23.668 C 153.833 24.104 153.892 24.241 153.995 24.482 L 154.865 24.482 C 154.968 24.241 155.027 24.104 155.214 23.668 C 155.401 23.233 155.595 22.778 155.796 22.301 C 155.998 21.822 156.202 21.343 156.409 20.864 C 156.615 20.386 156.802 19.951 156.971 19.558 L 157.763 17.709 L 157.928 19.714 C 158.022 20.852 158.093 21.987 158.14 23.107 C 158.187 24.223 158.212 24.907 158.238 25.719 L 159.364 25.719 C 159.332 25.107 159.308 24.659 159.257 23.789 C 159.205 22.92 159.149 22.053 159.088 21.188 C 159.028 20.325 158.958 19.499 158.879 18.701 C 158.8 17.905 158.751 17.507 158.681 16.981 L 157.421 16.981 C 157.29 17.229 157.206 17.394 156.988 17.844 C 156.769 18.295 156.543 18.781 156.305 19.307 C 156.067 19.834 155.833 20.37 155.6 20.92 C 155.366 21.472 155.146 21.992 154.94 22.479 L 154.479 23.568 L 154.019 22.479 C 153.813 21.992 153.593 21.472 153.358 20.92 C 153.125 20.37 152.891 19.834 152.653 19.307 C 152.416 18.781 152.189 18.295 151.971 17.844 C 151.753 17.394 151.668 17.229 151.538 16.981 Z" style="" transform="matrix(1.243146, 0, 0, 2.422794, -20.080803, -29.433798)"/>
</svg>